<?xml version="1.0" encoding="utf-8"?>
<!-- Generator: Adobe Illustrator 18.0.0, SVG Export Plug-In . SVG Version: 6.00 Build 0)  -->
<!DOCTYPE svg PUBLIC "-//W3C//DTD SVG 1.1//EN" "http://www.w3.org/Graphics/SVG/1.1/DTD/svg11.dtd">
<svg version="1.1" id="Layer_1" xmlns="http://www.w3.org/2000/svg" xmlns:xlink="http://www.w3.org/1999/xlink" x="0px" y="0px"
	 viewBox="0 0 150 150" enable-background="new 0 0 150 150" xml:space="preserve">
<g>
	<rect x="117.7" y="110.7" fill="#FFEC00" width="6.1" height="1"/>
	<polygon fill="#FFEC00" points="113.3,117.7 108.5,117.7 104.2,100.1 106.2,99.6 110.1,115.7 111.3,115.7 111.3,100 113.3,100 	"/>
	<rect x="108.4" y="110.9" fill="#FFEC00" width="3.3" height="1"/>
	<polygon fill="#FFEC00" points="66.3,117.7 61.5,117.7 57.2,100.1 59.2,99.6 63.1,115.7 64.3,115.7 64.3,100 66.3,100 	"/>
	<rect x="61.4" y="110.9" fill="#FFEC00" width="3.3" height="1"/>
	<path fill="#FFEC00" d="M129.2,86.6c-0.6,0-1-0.4-1-1V56.1c0-1.1-0.9-2-2-2h-15.6c-0.6,0-1-0.4-1-1s0.4-1,1-1h15.6c2.2,0,4,1.8,4,4
		v29.5C130.2,86.2,129.7,86.6,129.2,86.6z"/>
	<path fill="#FFEC00" d="M132.1,87.2C132,87.2,132,87.2,132.1,87.2c-0.6-0.1-1-0.5-1-1.1l0-6.1h-1.8c-0.6,0-1-0.4-1-1s0.4-1,1-1h1.8
		c1.1,0,2,0.9,2,2v6.1c0,0,0,0.2,0,0.2C133,86.8,132.6,87.2,132.1,87.2z"/>
	<path opacity="0.4" fill="#3C3C3B" d="M76,86c-4.5-3.4-11.1,2.4-14-0.7c-1.5-1.6,1.4-6.1-1.5-8.7c-2.3-2.1-9.5-0.7-13.3,0.3v18.9
		v1.3v19.6h2.7l7.8-16.6h23.1C81.2,94.9,80,89,76,86z"/>
	<rect x="47.9" y="110.9" fill="#FFEC00" width="3.8" height="1"/>
	<g>
		<defs>
			<path id="SVGID_1_" d="M89.9,68.4c5.8,5.8,14.8-6.7,17.9-3.8c4.1,3.8-1.3,8.6,2.9,12.8c3.4,3.4,9.6,0.2,13.2-2.1V56.1
				c0-1.6-1.4-3-3-3H89.5C89.2,53.8,84.2,62.7,89.9,68.4z"/>
		</defs>
		<clipPath id="SVGID_2_">
			<use xlink:href="#SVGID_1_"  overflow="visible"/>
		</clipPath>
		<g clip-path="url(#SVGID_2_)">
			
				<rect x="89.2" y="51.1" transform="matrix(0.7071 0.7071 -0.7071 0.7071 66.6023 -46.7468)" fill="#3C3C3B" width="1" height="11.8"/>
			
				<rect x="90.9" y="50" transform="matrix(0.7071 0.7071 -0.7071 0.7071 69.4559 -46.928)" fill="#3C3C3B" width="1" height="20.8"/>
			
				<rect x="95.2" y="49.3" transform="matrix(0.7071 0.7071 -0.7071 0.7071 71.214 -49.7553)" fill="#3C3C3B" width="1" height="23.5"/>
			
				<rect x="99.4" y="48.8" transform="matrix(0.7071 0.7071 -0.7071 0.7071 72.9891 -52.5409)" fill="#3C3C3B" width="1" height="26.2"/>
			
				<rect x="104.3" y="48.9" transform="matrix(0.7071 0.7071 -0.7071 0.7071 74.5053 -55.9514)" fill="#3C3C3B" width="1" height="26.2"/>
			
				<rect x="112.1" y="50.3" transform="matrix(0.7071 0.7071 -0.7071 0.7071 74.8048 -62.2994)" fill="#3C3C3B" width="1" height="17.7"/>
			
				<rect x="115.6" y="49.3" transform="matrix(0.7071 0.7071 -0.7071 0.7071 76.9036 -64.3037)" fill="#3C3C3B" width="1" height="22.7"/>
			
				<rect x="115.9" y="52.1" transform="matrix(0.7071 0.7071 -0.7071 0.7071 80.2838 -63.2143)" fill="#3C3C3B" width="1" height="26.4"/>
			
				<rect x="116.9" y="58" transform="matrix(0.7071 0.7071 -0.7071 0.7071 83.4438 -62.6561)" fill="#3C3C3B" width="1" height="22.8"/>
			
				<rect x="118.1" y="63.2" transform="matrix(0.7071 0.7071 -0.7071 0.7071 86.4615 -62.4416)" fill="#3C3C3B" width="1" height="20"/>
			
				<rect x="120.8" y="68.5" transform="matrix(0.7071 0.7071 -0.7071 0.7071 88.8883 -63.6539)" fill="#3C3C3B" width="1" height="14"/>
		</g>
	</g>
	<path fill="#FFEC00" d="M114.5,79.3c-1.7,0-3.1-0.5-4.2-1.6c-2.3-2.3-1.9-4.8-1.6-7c0.3-2.2,0.6-4-1.3-5.7c-1-0.9-3.3,0.5-5.7,2
		c-2.6,1.6-5.5,3.5-8.2,3.5l0,0c-1.5,0-2.9-0.6-4-1.7c-5.9-5.9-1-14.9-0.4-15.9l0.1-0.2h31.6c1.9,0,3.5,1.6,3.5,3.5v19.4l-0.2,0.1
		C121.6,77.3,117.8,79.3,114.5,79.3z M106.6,63.7c0.6,0,1.1,0.2,1.5,0.6c2.2,2,1.9,4.4,1.6,6.6c-0.3,2.2-0.6,4.2,1.3,6.2
		c0.9,0.9,2.1,1.3,3.5,1.3c2.9,0,6.4-1.8,8.8-3.4V56.1c0-1.4-1.1-2.5-2.5-2.5h-31c-0.8,1.5-4.7,9.4,0.4,14.4c1,1,2,1.4,3.3,1.4
		c2.5,0,5.2-1.8,7.7-3.3C103.3,64.8,105.2,63.7,106.6,63.7z"/>
	<g>
		<defs>
			<path id="SVGID_3_" d="M76,86c-4.5-3.4-11.1,2.4-14-0.7c-1.5-1.6,1.4-6.1-1.5-8.7c-2.3-2.1-9.5-0.7-13.3,0.3v18.9v1.3v19.6h2.7
				l7.8-16.6h23.1C81.2,94.9,80,89,76,86z"/>
		</defs>
		<clipPath id="SVGID_4_">
			<use xlink:href="#SVGID_3_"  overflow="visible"/>
		</clipPath>
		<g clip-path="url(#SVGID_4_)">
			
				<rect x="48.4" y="73.4" transform="matrix(0.7071 0.7071 -0.7071 0.7071 69.7183 -11.6455)" fill="#3C3C3B" width="1" height="9.9"/>
			
				<rect x="51.2" y="71.6" transform="matrix(0.7071 0.7071 -0.7071 0.7071 72.1018 -12.9623)" fill="#3C3C3B" width="1" height="17.9"/>
			
				<rect x="53.4" y="72.4" transform="matrix(0.7071 0.7071 -0.7071 0.7071 74.74 -13.6645)" fill="#3C3C3B" width="1" height="22.1"/>
			
				<rect x="53.5" y="75.8" transform="matrix(0.7071 0.7071 -0.7071 0.7071 78.2021 -12.3771)" fill="#3C3C3B" width="1" height="24.7"/>
			
				<rect x="53.6" y="80.2" transform="matrix(0.7071 0.7071 -0.7071 0.7071 81.7247 -10.9439)" fill="#3C3C3B" width="1" height="25.9"/>
			
				<rect x="56.1" y="80" transform="matrix(0.7071 0.7071 -0.7071 0.7071 84.2117 -12.0107)" fill="#3C3C3B" width="1" height="31.3"/>
			
				<rect x="58.6" y="78.1" transform="matrix(0.7071 0.7071 -0.7071 0.7071 86.6988 -13.0774)" fill="#3C3C3B" width="1" height="40"/>
			
				<rect x="67.8" y="81.4" transform="matrix(0.7071 0.7071 -0.7071 0.7071 86.4288 -20.8006)" fill="#3C3C3B" width="1" height="25"/>
			
				<rect x="71.7" y="84.3" transform="matrix(0.7071 0.7071 -0.7071 0.7071 88.3463 -23.2424)" fill="#3C3C3B" width="1" height="21.4"/>
			
				<rect x="74.6" y="88.6" transform="matrix(0.7071 0.7071 -0.7071 0.7071 90.691 -24.653)" fill="#3C3C3B" width="1" height="17.1"/>
			
				<rect x="77.5" y="93.6" transform="matrix(0.7071 0.7071 -0.7071 0.7071 93.0227 -26.0947)" fill="#3C3C3B" width="1" height="11.2"/>
		</g>
	</g>
	<path fill="#FFEC00" d="M50.2,117.2h-3.5V76.6l0.4-0.1c2.5-0.6,6.2-1.4,9.2-1.4c2.2,0,3.7,0.4,4.6,1.2c1.8,1.7,1.6,4,1.3,5.9
		c-0.1,1.2-0.3,2.3,0.2,2.8c0.5,0.5,1.2,0.8,2.1,0.8c1,0,2.2-0.3,3.5-0.6c1.5-0.4,3-0.8,4.5-0.8c1.5,0,2.8,0.4,3.8,1.2
		c3.6,2.7,5.4,8.2,5,14.6l0,0.5H58L50.2,117.2z M47.7,116.2h1.9l7.8-16.6h23c0.3-5.9-1.4-10.8-4.6-13.3c-0.9-0.7-1.9-1-3.2-1
		c-1.4,0-2.8,0.4-4.2,0.7c-1.3,0.3-2.6,0.7-3.8,0.7c-1.2,0-2.1-0.4-2.8-1.1c-0.8-0.8-0.6-2.2-0.5-3.6c0.2-1.8,0.4-3.7-1-5
		c-0.7-0.6-2-0.9-3.9-0.9c-2.8,0-6.1,0.7-8.6,1.3V116.2z"/>
	<path fill="#FFEC00" d="M124.8,118h-5.2l-5.3-16.8h-56l-7.8,16.6h-4.3V56.1c0-2.2,1.8-4,4-4h70.7c2.2,0,4,1.8,4,4L124.8,118z
		 M121.1,116h1.8l0-59.8c0-1.1-0.9-2-2-2H50.2c-1.1,0-2,0.9-2,2v59.6h1l7.8-16.6h58.7L121.1,116z"/>
	<g>
		<g>
			<path d="M49.6,71.4H29c-0.6,0-1.1-0.5-1.1-1.1L26.9,43c0-0.6,0.5-1.1,1.1-1.1h22.7c0.6,0,1.1,0.5,1.1,1.1l-1.1,27.3
				C50.6,71,50.1,71.4,49.6,71.4z"/>
			<path fill="#FFEC00" d="M49.6,72.4H29c-1.1,0-2.1-0.9-2.1-2.1l-1.1-27.3c0-1.2,0.9-2.1,2.1-2.1h22.7c1.1,0,2.1,0.9,2.1,2.1
				l-1.1,27.3C51.6,71.5,50.7,72.4,49.6,72.4z M28,42.9c0,0-0.1,0-0.1,0.1L29,70.3c0,0.1,0,0.1,0.1,0.1h20.5c0,0,0.1,0,0.1-0.1
				L50.7,43c0,0,0-0.1-0.1-0.1H28z"/>
		</g>
		<g>
			<path fill="#1D1D1B" d="M45.3,62.8H33c-0.5,0-1,0.5-1,1V73c0,0.6,0.5,1,1,1h12.4c0.5,0,1-0.4,1-1v-9.3
				C46.3,63.2,45.9,62.8,45.3,62.8z"/>
			<path fill="#FFEC00" d="M45.3,74.5H33c-0.8,0-1.5-0.7-1.5-1.5v-9.3c0-0.8,0.7-1.5,1.5-1.5h12.4c0.8,0,1.5,0.7,1.5,1.5V73
				C46.8,73.8,46.2,74.5,45.3,74.5z M33,63.3c-0.3,0-0.5,0.2-0.5,0.5V73c0,0.3,0.2,0.5,0.5,0.5h12.4c0.3,0,0.5-0.2,0.5-0.5v-9.3
				c0-0.3-0.2-0.5-0.5-0.5H33z"/>
		</g>
		<path opacity="0.4" fill="#3C3C3B" d="M45.3,62.8H33c-0.5,0-1,0.5-1,1V73c0,0.6,0.5,1,1,1h12.4c0.5,0,1-0.4,1-1v-9.3
			C46.3,63.2,45.9,62.8,45.3,62.8z"/>
		<circle fill="#FFEC00" cx="35.6" cy="67.1" r="1.2"/>
		<circle fill="#FFEC00" cx="42.1" cy="67.1" r="1.2"/>
		<path fill="none" stroke="#FFEC00" stroke-miterlimit="10" d="M36.8,50.2"/>
		<path fill="none" stroke="#FFEC00" stroke-miterlimit="10" d="M36.8,40.9"/>
		<rect x="38.4" y="38.9" fill="#FFEC00" width="1" height="11.3"/>
		<path fill="none" stroke="#FFEC00" stroke-miterlimit="10" d="M41.1,50.2"/>
		<path fill="none" stroke="#FFEC00" stroke-miterlimit="10" d="M41.1,40.9"/>
		<g>
			<path fill="#1D1D1B" d="M34.2,42h-8.3c-1.8,0-3.2-1.4-3.2-3.2v-6.3h-1.1c-2.3,0-4.2,1.9-4.2,4.2V43c0,2.3,1.9,4.2,4.2,4.2h12.7"
				/>
			<path fill="#FFEC00" d="M34.3,47.8H21.7c-2.6,0-4.7-2.1-4.7-4.7v-6.3c0-2.6,2.1-4.7,4.7-4.7h1.6v6.8c0,1.5,1.2,2.7,2.7,2.7h8.3v1
				h-8.3c-2,0-3.7-1.7-3.7-3.7V33h-0.6c-2.1,0-3.7,1.7-3.7,3.7V43c0,2.1,1.7,3.7,3.7,3.7h12.7V47.8z"/>
		</g>
		<g>
			<path fill="#1D1D1B" d="M43.7,42h8.3c1.8,0,3.2-1.4,3.2-3.2v-6.3h1.1c2.3,0,4.2,1.9,4.2,4.2V43c0,2.3-1.9,4.2-4.2,4.2H43.5"/>
			<path fill="#FFEC00" d="M56.2,47.8H43.5v-1h12.7c2.1,0,3.7-1.7,3.7-3.7v-6.3c0-2.1-1.7-3.7-3.7-3.7h-0.6v5.8c0,2-1.7,3.7-3.7,3.7
				h-8.3v-1h8.3c1.5,0,2.7-1.2,2.7-2.7V32h1.6c2.6,0,4.7,2.1,4.7,4.7V43C60.9,45.7,58.8,47.8,56.2,47.8z"/>
		</g>
		<rect x="34.2" y="38.9" fill="#FFEC00" width="1" height="11.1"/>
		<rect x="42.7" y="38.9" fill="#FFEC00" width="1" height="11.3"/>
		<rect x="29.7" y="53.3" fill="#FFEC00" width="5.3" height="1"/>
		<rect x="42.5" y="53.3" fill="#FFEC00" width="5.3" height="1"/>
		<path fill="#FFEC00" d="M45.3,74.5H33c-0.8,0-1.5-0.7-1.5-1.5v-9.3c0-0.8,0.7-1.5,1.5-1.5h12.4c0.8,0,1.5,0.7,1.5,1.5V73
			C46.8,73.8,46.2,74.5,45.3,74.5z M33,63.3c-0.3,0-0.5,0.2-0.5,0.5V73c0,0.3,0.2,0.5,0.5,0.5h12.4c0.3,0,0.5-0.2,0.5-0.5v-9.3
			c0-0.3-0.2-0.5-0.5-0.5H33z"/>
	</g>
</g>
</svg>
