<?xml version="1.0" encoding="utf-8"?>
<!-- Generator: Adobe Illustrator 18.0.0, SVG Export Plug-In . SVG Version: 6.00 Build 0)  -->
<!DOCTYPE svg PUBLIC "-//W3C//DTD SVG 1.1//EN" "http://www.w3.org/Graphics/SVG/1.1/DTD/svg11.dtd">
<svg version="1.1" id="Layer_1" xmlns="http://www.w3.org/2000/svg" xmlns:xlink="http://www.w3.org/1999/xlink" x="0px" y="0px"
	 viewBox="0 0 150 150" enable-background="new 0 0 150 150" xml:space="preserve">
<g>
	<polygon opacity="0.4" fill="#3C3C3B" points="72.9,71.8 116.9,44.8 127.6,95.8 72.6,77.5 	"/>
	<polygon opacity="0.4" fill="#3C3C3B" points="42.1,116.1 86.9,115 86.9,112 32.9,79.1 35.1,111 41.3,112.8 	"/>
	<g>
		<defs>
			<polygon id="SVGID_1_" points="87.9,110.5 69.6,83 74.4,77.5 126.4,95.3 124.9,97.6 93.4,112.8 			"/>
		</defs>
		<clipPath id="SVGID_2_">
			<use xlink:href="#SVGID_1_"  overflow="visible"/>
		</clipPath>
		<g clip-path="url(#SVGID_2_)">
			
				<rect x="73.9" y="76.9" transform="matrix(0.7071 0.7071 -0.7071 0.7071 79.5921 -28.6376)" fill="#3C3C3B" width="1" height="9.8"/>
			
				<rect x="76.7" y="77.8" transform="matrix(0.7071 0.7071 -0.7071 0.7071 81.9368 -30.0482)" fill="#3C3C3B" width="1" height="12.1"/>
			
				<rect x="79.8" y="78.9" transform="matrix(0.7071 0.7071 -0.7071 0.7071 84.1993 -31.6565)" fill="#3C3C3B" width="1" height="13.8"/>
			
				<rect x="83" y="77.8" transform="matrix(0.7071 0.7071 -0.7071 0.7071 86.4061 -33.4005)" fill="#3C3C3B" width="1" height="19.6"/>
			
				<rect x="85.9" y="79.6" transform="matrix(0.7071 0.7071 -0.7071 0.7071 88.7637 -34.7798)" fill="#3C3C3B" width="1" height="20.2"/>
			
				<rect x="88.3" y="81.3" transform="matrix(0.7071 0.7071 -0.7071 0.7071 91.3025 -35.7216)" fill="#3C3C3B" width="1" height="22.1"/>
			
				<rect x="91.1" y="82.4" transform="matrix(0.7071 0.7071 -0.7071 0.7071 93.686 -37.0384)" fill="#3C3C3B" width="1" height="24.3"/>
			
				<rect x="93.9" y="83.1" transform="matrix(0.7071 0.7071 -0.7071 0.7071 96.0436 -38.4176)" fill="#3C3C3B" width="1" height="27.2"/>
			
				<rect x="96.8" y="84.5" transform="matrix(0.7071 0.7071 -0.7071 0.7071 98.3753 -39.8594)" fill="#3C3C3B" width="1" height="28.5"/>
			
				<rect x="100.5" y="85.8" transform="matrix(0.7071 0.7071 -0.7071 0.7071 100.3835 -42.0825)" fill="#3C3C3B" width="1" height="28.7"/>
			
				<rect x="103.9" y="87" transform="matrix(0.7071 0.7071 -0.7071 0.7071 102.521 -43.993)" fill="#3C3C3B" width="1" height="29.4"/>
			
				<rect x="110.8" y="89.7" transform="matrix(0.7071 0.7071 -0.7071 0.7071 103.1959 -49.4348)" fill="#3C3C3B" width="1" height="20.3"/>
			
				<rect x="117" y="92.7" transform="matrix(0.7071 0.7071 -0.7071 0.7071 104.1685 -54.1578)" fill="#3C3C3B" width="1" height="11.8"/>
			
				<rect x="122.6" y="96.8" transform="matrix(0.7071 0.7071 -0.7071 0.7071 105.3482 -58.3808)" fill="#3C3C3B" width="1" height="2.3"/>
		</g>
	</g>
	<g>
		<path fill="#FFEC00" d="M67.4,83.1c-4.3,0-7.8-3.5-7.8-7.8s3.5-7.8,7.8-7.8s7.8,3.5,7.8,7.8S71.7,83.1,67.4,83.1z M67.4,69.5
			c-3.2,0-5.8,2.6-5.8,5.8c0,3.2,2.6,5.8,5.8,5.8c3.2,0,5.8-2.6,5.8-5.8C73.2,72.1,70.6,69.5,67.4,69.5z"/>
		<path fill="#FFEC00" d="M27.4,41.1c-3.2,0-5.8-2.6-5.8-5.8c0-3.2,2.6-5.8,5.8-5.8c3.2,0,5.8,2.6,5.8,5.8
			C33.2,38.5,30.6,41.1,27.4,41.1z M27.4,31.5c-2.1,0-3.8,1.7-3.8,3.8s1.7,3.8,3.8,3.8s3.8-1.7,3.8-3.8S29.5,31.5,27.4,31.5z"/>
		<path fill="#FFEC00" d="M117.4,50.5c-2.8,0-5.1-2.3-5.1-5.1s2.3-5.1,5.1-5.1s5.1,2.3,5.1,5.1S120.2,50.5,117.4,50.5z M117.4,42.2
			c-1.7,0-3.1,1.4-3.1,3.1c0,1.7,1.4,3.1,3.1,3.1c1.7,0,3.1-1.4,3.1-3.1C120.5,43.6,119.1,42.2,117.4,42.2z"/>
		<path fill="#FFEC00" d="M127.4,100.5c-2.8,0-5.1-2.3-5.1-5.1s2.3-5.1,5.1-5.1s5.1,2.3,5.1,5.1S130.2,100.5,127.4,100.5z
			 M127.4,92.2c-1.7,0-3.1,1.4-3.1,3.1c0,1.7,1.4,3.1,3.1,3.1c1.7,0,3.1-1.4,3.1-3.1C130.5,93.6,129.1,92.2,127.4,92.2z"/>
		<path fill="#FFEC00" d="M37.4,120.5c-2.8,0-5.1-2.3-5.1-5.1s2.3-5.1,5.1-5.1s5.1,2.3,5.1,5.1S40.2,120.5,37.4,120.5z M37.4,112.2
			c-1.7,0-3.1,1.4-3.1,3.1c0,1.7,1.4,3.1,3.1,3.1c1.7,0,3.1-1.4,3.1-3.1C40.5,113.6,39.1,112.2,37.4,112.2z"/>
		<path fill="#FFEC00" d="M73.4,55.3c-2.2,0-4-1.8-4-4s1.8-4,4-4s4,1.8,4,4S75.6,55.3,73.4,55.3z M73.4,48.4c-1.6,0-3,1.3-3,3
			s1.3,3,3,3s3-1.3,3-3S75,48.4,73.4,48.4z"/>
		<path fill="#FFEC00" d="M90.4,117.3c-2.2,0-4-1.8-4-4s1.8-4,4-4s4,1.8,4,4S92.6,117.3,90.4,117.3z M90.4,110.4c-1.6,0-3,1.3-3,3
			s1.3,3,3,3s3-1.3,3-3S92,110.4,90.4,110.4z"/>
		<path fill="#FFEC00" d="M21.4,77.3c-2.2,0-4-1.8-4-4s1.8-4,4-4s4,1.8,4,4S23.6,77.3,21.4,77.3z M21.4,70.4c-1.6,0-3,1.3-3,3
			s1.3,3,3,3s3-1.3,3-3S23,70.4,21.4,70.4z"/>
		
			<rect x="72.2" y="84.8" transform="matrix(0.9461 0.3238 -0.3238 0.9461 32.9231 -27.2751)" fill="#FFEC00" width="52.5" height="1"/>
		<path fill="#FFEC00" d="M122.9,93.2l-1.5-1.3l0.7-0.8l1.5,1.3L122.9,93.2z M119.1,89.9l-1.5-1.3l0.7-0.8l1.5,1.3L119.1,89.9z
			 M115.3,86.7l-1.5-1.3l0.7-0.8l1.5,1.3L115.3,86.7z M111.5,83.4l-1.5-1.3l0.7-0.8l1.5,1.3L111.5,83.4z M107.7,80.2l-1.5-1.3
			l0.7-0.8l1.5,1.3L107.7,80.2z M103.9,76.9l-1.5-1.3l0.7-0.8l1.5,1.3L103.9,76.9z M100.1,73.7l-1.5-1.3l0.7-0.8l1.5,1.3L100.1,73.7
			z M96.3,70.4l-1.5-1.3l0.7-0.8l1.5,1.3L96.3,70.4z M92.5,67.2L91,65.9l0.7-0.8l1.5,1.3L92.5,67.2z M88.7,63.9l-1.5-1.3l0.7-0.8
			l1.5,1.3L88.7,63.9z M84.9,60.7l-1.5-1.3l0.7-0.8l1.5,1.3L84.9,60.7z M81.1,57.4l-1.5-1.3l0.7-0.8l1.5,1.3L81.1,57.4z M77.3,54.1
			l-0.8-0.6l0.7-0.8l0.8,0.6L77.3,54.1z"/>
		<path fill="#FFEC00" d="M72.8,71.9L72.3,71l1.7-1l0.5,0.9L72.8,71.9z M77.1,69.3l-0.5-0.9l1.7-1l0.5,0.9L77.1,69.3z M81.4,66.6
			l-0.5-0.9l1.7-1l0.5,0.9L81.4,66.6z M85.6,64l-0.5-0.9l1.7-1l0.5,0.9L85.6,64z M89.9,61.4l-0.5-0.9l1.7-1l0.5,0.9L89.9,61.4z
			 M94.1,58.8l-0.5-0.9l1.7-1l0.5,0.9L94.1,58.8z M98.4,56.1l-0.5-0.9l1.7-1l0.5,0.9L98.4,56.1z M102.6,53.5l-0.5-0.9l1.7-1l0.5,0.9
			L102.6,53.5z M106.9,50.9l-0.5-0.9l1.7-1l0.5,0.9L106.9,50.9z M111.1,48.3l-0.5-0.9l1.7-1l0.5,0.9L111.1,48.3z"/>
		
			<rect x="50.1" y="76.3" transform="matrix(0.8051 0.5931 -0.5931 0.8051 66.7681 -11.3021)" fill="#FFEC00" width="1" height="39.3"/>
		<path fill="#FFEC00" d="M86.7,112.2l-1.7-1l0.5-0.9l1.7,1L86.7,112.2z M82.4,109.6l-1.7-1l0.5-0.9l1.7,1L82.4,109.6z M78.1,107
			l-1.7-1l0.5-0.9l1.7,1L78.1,107z M73.8,104.4l-1.7-1l0.5-0.9l1.7,1L73.8,104.4z M69.5,101.9l-1.7-1l0.5-0.9l1.7,1L69.5,101.9z
			 M65.3,99.3l-1.7-1l0.5-0.9l1.7,1L65.3,99.3z M61,96.7l-1.7-1l0.5-0.9l1.7,1L61,96.7z M56.7,94.1l-1.7-1l0.5-0.9l1.7,1L56.7,94.1z
			 M52.4,91.5l-1.7-1l0.5-0.9l1.7,1L52.4,91.5z M48.2,88.9l-1.7-1L47,87l1.7,1L48.2,88.9z M43.9,86.3l-1.7-1l0.5-0.9l1.7,1
			L43.9,86.3z M39.6,83.7l-1.7-1l0.5-0.9l1.7,1L39.6,83.7z M35.3,81.1l-1.7-1l0.5-0.9l1.7,1L35.3,81.1z M31.1,78.6l-1.7-1l0.5-0.9
			l1.7,1L31.1,78.6z M26.8,76l-1.7-1l0.5-0.9l1.7,1L26.8,76z"/>
		<path fill="#FFEC00" d="M23.8,74.2l-0.4-0.9l1.8-0.8l0.4,0.9L23.8,74.2z M28.3,72.2l-0.4-0.9l1.8-0.8l0.4,0.9L28.3,72.2z
			 M32.9,70.1l-0.4-0.9l1.8-0.8l0.4,0.9L32.9,70.1z M37.5,68.1L37,67.1l1.8-0.8l0.4,0.9L37.5,68.1z M42,66l-0.4-0.9l1.8-0.8l0.4,0.9
			L42,66z M46.6,63.9L46.1,63l1.8-0.8l0.4,0.9L46.6,63.9z M51.1,61.9l-0.4-0.9l1.8-0.8l0.4,0.9L51.1,61.9z M55.7,59.8l-0.4-0.9
			l1.8-0.8l0.4,0.9L55.7,59.8z M60.2,57.7l-0.4-0.9l1.8-0.8l0.4,0.9L60.2,57.7z M64.8,55.7l-0.4-0.9l1.8-0.8l0.4,0.9L64.8,55.7z
			 M69.3,53.6l-0.4-0.9l0.8-0.4l0.4,0.9L69.3,53.6z"/>
		<path fill="#FFEC00" d="M69.4,68.5l-1-0.1l0.1-0.8l1,0.1L69.4,68.5z M69.8,64.8l-1-0.1l0.2-2l1,0.1L69.8,64.8z M70.3,59.8l-1-0.1
			l0.2-2l1,0.1L70.3,59.8z M70.9,54.8l-1-0.1l0.2-2l1,0.1L70.9,54.8z"/>
		<path fill="#FFEC00" d="M35.1,110.8l-0.2-2l1-0.1l0.2,2L35.1,110.8z M34.7,105.8l-0.2-2l1-0.1l0.2,2L34.7,105.8z M34.3,100.9
			l-0.2-2l1-0.1l0.2,2L34.3,100.9z M33.9,95.9l-0.2-2l1-0.1l0.2,2L33.9,95.9z M33.5,90.9l-0.2-2l1-0.1l0.2,2L33.5,90.9z M33.1,85.9
			l-0.2-2l1-0.1l0.2,2L33.1,85.9z M32.7,80.9l-0.2-2l1-0.1l0.2,2L32.7,80.9z M32.3,75.9l-0.2-2l1-0.1l0.2,2L32.3,75.9z M31.9,71
			l-0.2-2l1-0.1l0.2,2L31.9,71z M31.5,66l-0.2-2l1-0.1l0.2,2L31.5,66z M31.1,61l-0.2-2l1-0.1l0.2,2L31.1,61z M30.7,56l-0.2-2l1-0.1
			l0.2,2L30.7,56z M30.3,51l-0.2-2l1-0.1l0.2,2L30.3,51z M29.9,46l-0.2-2l1-0.1l0.2,2L29.9,46z M29.5,41.1l0-0.6l1-0.1l0,0.6
			L29.5,41.1z"/>
		
			<rect x="23.9" y="54.5" transform="matrix(0.7146 0.6995 -0.6995 0.7146 51.5964 -16.5525)" fill="#FFEC00" width="44.3" height="1"/>
		<path fill="#FFEC00" d="M112.5,45.6l-1-0.1l0.1-1l1,0.1L112.5,45.6z M108.5,45.2l-2-0.2l0.1-1l2,0.2L108.5,45.2z M103.5,44.8
			l-2-0.2l0.1-1l2,0.2L103.5,44.8z M98.6,44.3l-2-0.2l0.1-1l2,0.2L98.6,44.3z M93.6,43.8l-2-0.2l0.1-1l2,0.2L93.6,43.8z M88.6,43.3
			l-2-0.2l0.1-1l2,0.2L88.6,43.3z M83.6,42.9l-2-0.2l0.1-1l2,0.2L83.6,42.9z M78.7,42.4l-2-0.2l0.1-1l2,0.2L78.7,42.4z M73.7,41.9
			l-2-0.2l0.1-1l2,0.2L73.7,41.9z M68.7,41.5l-2-0.2l0.1-1l2,0.2L68.7,41.5z M63.7,41l-2-0.2l0.1-1l2,0.2L63.7,41z M58.7,40.5
			l-2-0.2l0.1-1l2,0.2L58.7,40.5z M53.8,40l-2-0.2l0.1-1l2,0.2L53.8,40z M48.8,39.6l-2-0.2l0.1-1l2,0.2L48.8,39.6z M43.8,39.1
			l-2-0.2l0.1-1l2,0.2L43.8,39.1z M38.8,38.6l-2-0.2l0.1-1l2,0.2L38.8,38.6z M33.9,38.1l-2-0.2l0.1-1l2,0.2L33.9,38.1z"/>
		<path fill="#FFEC00" d="M126.2,90.5l-0.4-2l1-0.2l0.4,2L126.2,90.5z M125.4,85.6l-0.4-2l1-0.2l0.4,2L125.4,85.6z M124.5,80.7
			l-0.4-2l1-0.2l0.4,2L124.5,80.7z M123.6,75.8l-0.4-2l1-0.2l0.4,2L123.6,75.8z M122.7,70.9l-0.4-2l1-0.2l0.4,2L122.7,70.9z
			 M121.8,65.9l-0.4-2l1-0.2l0.4,2L121.8,65.9z M120.9,61l-0.4-2l1-0.2l0.4,2L120.9,61z M120,56.1l-0.4-2l1-0.2l0.4,2L120,56.1z
			 M119.1,51.2l-0.4-2l1-0.2l0.4,2L119.1,51.2z"/>
		<path fill="#FFEC00" d="M95,112.2l-0.4-0.9l1.8-0.9l0.4,0.9L95,112.2z M99.5,110l-0.4-0.9l1.8-0.9l0.4,0.9L99.5,110z M104,107.8
			l-0.4-0.9l1.8-0.9l0.4,0.9L104,107.8z M108.5,105.6l-0.4-0.9l1.8-0.9l0.4,0.9L108.5,105.6z M113,103.5l-0.4-0.9l1.8-0.9l0.4,0.9
			L113,103.5z M117.5,101.3l-0.4-0.9l1.8-0.9l0.4,0.9L117.5,101.3z M122,99.1l-0.4-0.9l1.8-0.9l0.4,0.9L122,99.1z"/>
		<path fill="#FFEC00" d="M87.8,111.1l-1.1-1.7l0.8-0.6l1.1,1.7L87.8,111.1z M85,106.9l-1.1-1.7l0.8-0.6l1.1,1.7L85,106.9z
			 M82.3,102.8l-1.1-1.7l0.8-0.6l1.1,1.7L82.3,102.8z M79.5,98.6l-1.1-1.7l0.8-0.6l1.1,1.7L79.5,98.6z M76.7,94.5l-1.1-1.7l0.8-0.6
			l1.1,1.7L76.7,94.5z M73.9,90.3l-1.1-1.7l0.8-0.6l1.1,1.7L73.9,90.3z M71.1,86.2L70,84.5l0.8-0.6l1.1,1.7L71.1,86.2z"/>
		<path fill="#FFEC00" d="M41.3,116.3l0-1l1.3,0l0,1L41.3,116.3z M45.6,116.2l0-1l2,0l0,1L45.6,116.2z M50.6,116.1l0-1l2,0l0,1
			L50.6,116.1z M55.6,116l0-1l2,0l0,1L55.6,116z M60.6,115.9l0-1l2,0l0,1L60.6,115.9z M65.6,115.8l0-1l2,0l0,1L65.6,115.8z
			 M70.6,115.7l0-1l2,0l0,1L70.6,115.7z M75.6,115.5l0-1l2,0l0,1L75.6,115.5z M80.6,115.4l0-1l2,0l0,1L80.6,115.4z M85.6,115.3l0-1
			l2,0l0,1L85.6,115.3z"/>
	</g>
</g>
</svg>
