<?xml version="1.0" encoding="utf-8"?>
<!-- Generator: Adobe Illustrator 18.0.0, SVG Export Plug-In . SVG Version: 6.00 Build 0)  -->
<!DOCTYPE svg PUBLIC "-//W3C//DTD SVG 1.1//EN" "http://www.w3.org/Graphics/SVG/1.1/DTD/svg11.dtd">
<svg version="1.1" id="Layer_1" xmlns="http://www.w3.org/2000/svg" xmlns:xlink="http://www.w3.org/1999/xlink" x="0px" y="0px"
	 viewBox="0 0 150 150" enable-background="new 0 0 150 150" xml:space="preserve">
<g>
	<path fill="#FFEC00" d="M149.3,37.8h-5.9v-5.9h5.9V37.8z M144.3,36.8h3.9v-3.9h-3.9V36.8z"/>
	<g>
		<defs>
			<polygon id="SVGID_1_" points="23,104.9 143.5,36.4 143.5,66.2 			"/>
		</defs>
		<clipPath id="SVGID_2_">
			<use xlink:href="#SVGID_1_"  overflow="visible"/>
		</clipPath>
		<g clip-path="url(#SVGID_2_)">
			
				<rect x="38.6" y="83.5" transform="matrix(0.7071 0.7071 -0.7071 0.7071 81.7013 1.4402)" fill="#3C3C3B" width="1" height="31.6"/>
			
				<rect x="34.3" y="83.5" transform="matrix(0.7071 0.7071 -0.7071 0.7071 80.4424 4.4794)" fill="#3C3C3B" width="1" height="31.6"/>
			
				<rect x="30" y="83.5" transform="matrix(0.7071 0.7071 -0.7071 0.7071 79.1835 7.5188)" fill="#3C3C3B" width="1" height="31.6"/>
			
				<rect x="42.9" y="83.5" transform="matrix(0.7071 0.7071 -0.7071 0.7071 82.9603 -1.5992)" fill="#3C3C3B" width="1" height="31.6"/>
			
				<rect x="51.8" y="72.5" transform="matrix(0.7071 0.7071 -0.7071 0.7071 82.32 -9.2234)" fill="#3C3C3B" width="1" height="44.6"/>
			
				<rect x="58.4" y="66.9" transform="matrix(0.7071 0.7071 -0.7071 0.7071 82.6294 -14.5552)" fill="#3C3C3B" width="1" height="51.1"/>
			
				<rect x="64.9" y="61.7" transform="matrix(0.7071 0.7071 -0.7071 0.7071 82.9832 -19.7795)" fill="#3C3C3B" width="1" height="57.2"/>
			
				<rect x="73.1" y="52.1" transform="matrix(0.7071 0.7071 -0.7071 0.7071 82.5955 -26.7947)" fill="#3C3C3B" width="1" height="68.5"/>
			
				<rect x="79.9" y="46.2" transform="matrix(0.7071 0.7071 -0.7071 0.7071 82.8456 -32.2696)" fill="#3C3C3B" width="1" height="75.4"/>
			
				<rect x="89.3" y="33.9" transform="matrix(0.7071 0.7071 -0.7071 0.7071 81.9976 -40.3952)" fill="#3C3C3B" width="1" height="89.8"/>
			
				<rect x="94.5" y="31.7" transform="matrix(0.7071 0.7071 -0.7071 0.7071 82.8708 -44.3656)" fill="#3C3C3B" width="1" height="92.4"/>
			
				<rect x="103" y="21.4" transform="matrix(0.7071 0.7071 -0.7071 0.7071 82.3791 -51.6317)" fill="#3C3C3B" width="1" height="104.3"/>
			
				<rect x="106.6" y="23.2" transform="matrix(0.7071 0.7071 -0.7071 0.7071 83.9347 -53.9546)" fill="#3C3C3B" width="1" height="102.3"/>
			
				<rect x="111.6" y="21.5" transform="matrix(0.7071 0.7071 -0.7071 0.7071 84.9116 -57.6743)" fill="#3C3C3B" width="1" height="104.2"/>
			<rect x="114" y="26" transform="matrix(0.7071 0.7071 -0.7071 0.7071 86.9423 -58.8513)" fill="#3C3C3B" width="1" height="99"/>
			
				<rect x="119.7" y="22.7" transform="matrix(0.7071 0.7071 -0.7071 0.7071 87.6372 -63.2516)" fill="#3C3C3B" width="1" height="102.8"/>
			
				<rect x="123.3" y="24.5" transform="matrix(0.7071 0.7071 -0.7071 0.7071 89.1927 -65.5744)" fill="#3C3C3B" width="1" height="100.8"/>
			
				<rect x="127" y="25.8" transform="matrix(0.7071 0.7071 -0.7071 0.7071 90.6741 -68.0766)" fill="#3C3C3B" width="1" height="99.3"/>
			
				<rect x="129.6" y="29.8" transform="matrix(0.7071 0.7071 -0.7071 0.7071 92.6305 -69.4324)" fill="#3C3C3B" width="1" height="94.5"/>
			
				<rect x="133.9" y="30" transform="matrix(0.7071 0.7071 -0.7071 0.7071 93.9193 -72.4004)" fill="#3C3C3B" width="1" height="94.3"/>
			
				<rect x="132.6" y="43.4" transform="matrix(0.7071 0.7071 -0.7071 0.7071 97.4777 -69.8877)" fill="#3C3C3B" width="1" height="78.6"/>
			
				<rect x="134.9" y="48.3" transform="matrix(0.7071 0.7071 -0.7071 0.7071 99.5674 -70.9208)" fill="#3C3C3B" width="1" height="72.9"/>
			
				<rect x="137.8" y="51.7" transform="matrix(0.7071 0.7071 -0.7071 0.7071 101.4197 -72.5276)" fill="#3C3C3B" width="1" height="68.9"/>
			
				<rect x="140.7" y="54.9" transform="matrix(0.7071 0.7071 -0.7071 0.7071 103.228 -74.2417)" fill="#3C3C3B" width="1" height="65.1"/>
			<rect x="140" y="67" transform="matrix(0.7071 0.7071 -0.7071 0.7071 106.564 -72.2664)" fill="#3C3C3B" width="1" height="51"/>
			
				<rect x="142.2" y="72" transform="matrix(0.7071 0.7071 -0.7071 0.7071 108.6832 -73.2283)" fill="#3C3C3B" width="1" height="45.1"/>
		</g>
	</g>
	<polygon opacity="0.4" fill="#3C3C3B" points="17,109.1 143.5,67.9 143.5,95.2 	"/>
	<path fill="#FFEC00" d="M147.5,69.5c-0.1,0-0.3,0-0.4-0.1l-6.4-6.4c-0.2-0.2-0.2-0.5,0-0.7s0.5-0.2,0.7,0l6.4,6.4
		c0.2,0.2,0.2,0.5,0,0.7C147.7,69.5,147.6,69.5,147.5,69.5z"/>
	<path fill="#FFEC00" d="M141,69.5c-0.1,0-0.3,0-0.4-0.1c-0.2-0.2-0.2-0.5,0-0.7l6.4-6.4c0.2-0.2,0.5-0.2,0.7,0s0.2,0.5,0,0.7
		l-6.4,6.4C141.3,69.5,141.1,69.5,141,69.5z"/>
	<path fill="#FFEC00" d="M1.3,114c-0.4,0-0.8-0.3-0.9-0.7c-0.2-0.5,0.1-1.1,0.6-1.3l142.4-47c0.5-0.2,1.1,0.1,1.3,0.6
		c0.2,0.5-0.1,1.1-0.6,1.3L1.6,114C1.5,114,1.4,114,1.3,114z"/>
	
		<rect x="71.9" y="29.9" transform="matrix(0.1192 0.9929 -0.9929 0.1192 165.0313 17.984)" fill="#FFEC00" width="1" height="144.3"/>
	<path fill="#FFEC00" d="M146.4,96.7c-1.8,0-3.3-1.5-3.3-3.3c0-1.8,1.5-3.3,3.3-3.3s3.3,1.5,3.3,3.3
		C149.7,95.2,148.2,96.7,146.4,96.7z M146.4,91.1c-1.3,0-2.3,1-2.3,2.3s1,2.3,2.3,2.3s2.3-1,2.3-2.3S147.7,91.1,146.4,91.1z"/>
	<path fill="#FFEC00" d="M2.2,118.1l-0.5-0.9l3.3-1.9l0.5,0.9L2.2,118.1z M10.7,113.2l-0.5-0.9l3.5-2l0.5,0.9L10.7,113.2z
		 M19.3,108.2l-0.5-0.9l3.5-2l0.5,0.9L19.3,108.2z M28,103.2l-0.5-0.9l3.5-2l0.5,0.9L28,103.2z M36.6,98.2l-0.5-0.9l3.5-2l0.5,0.9
		L36.6,98.2z M45.3,93.2l-0.5-0.9l3.5-2l0.5,0.9L45.3,93.2z M54,88.2l-0.5-0.9l3.5-2l0.5,0.9L54,88.2z M62.6,83.2l-0.5-0.9l3.5-2
		l0.5,0.9L62.6,83.2z M71.3,78.2l-0.5-0.9l3.5-2l0.5,0.9L71.3,78.2z M80,73.2l-0.5-0.9l3.5-2l0.5,0.9L80,73.2z M88.6,68.2l-0.5-0.9
		l3.5-2l0.5,0.9L88.6,68.2z M97.3,63.2l-0.5-0.9l3.5-2l0.5,0.9L97.3,63.2z M105.9,58.2l-0.5-0.9l3.5-2l0.5,0.9L105.9,58.2z
		 M114.6,53.3l-0.5-0.9l3.5-2l0.5,0.9L114.6,53.3z M123.3,48.3l-0.5-0.9l3.5-2l0.5,0.9L123.3,48.3z M131.9,43.3l-0.5-0.9l3.5-2
		l0.5,0.9L131.9,43.3z M140.6,38.3l-0.5-0.9l3.5-2l0.5,0.9L140.6,38.3z"/>
</g>
</svg>
