<?xml version="1.0" encoding="utf-8"?>
<!-- Generator: Adobe Illustrator 18.0.0, SVG Export Plug-In . SVG Version: 6.00 Build 0)  -->
<!DOCTYPE svg PUBLIC "-//W3C//DTD SVG 1.1//EN" "http://www.w3.org/Graphics/SVG/1.1/DTD/svg11.dtd">
<svg version="1.1" id="Layer_1" xmlns="http://www.w3.org/2000/svg" xmlns:xlink="http://www.w3.org/1999/xlink" x="0px" y="0px"
	 viewBox="0 0 150 150" enable-background="new 0 0 150 150" xml:space="preserve">
<g>
	<path fill="#FFEC00" d="M48.1,54.5h-31v-31h31V54.5z M19.1,52.5h27v-27h-27V52.5z"/>
	<rect x="96.8" y="103.2" opacity="0.4" fill="#3C3C3B" width="28.4" height="28.4"/>
	<path fill="#FFEC00" d="M126.2,132.6H95.8v-30.4h30.4V132.6z M97.8,130.6h26.4v-26.4H97.8V130.6z"/>
	<path fill="#FFEC00" d="M48.2,125.1h-23v-23h23V125.1z M27.2,123.1h19v-19h-19V123.1z"/>
	<rect x="47.1" y="53.5" opacity="0.4" fill="#3C3C3B" width="49.7" height="49.7"/>
	
		<rect x="20.3" y="23.3" transform="matrix(0.7071 0.7071 -0.7071 0.7071 25.7587 -6.5767)" fill="#FFEC00" width="1" height="8.9"/>
	
		<rect x="23.1" y="22.4" transform="matrix(0.7071 0.7071 -0.7071 0.7071 28.151 -7.8726)" fill="#FFEC00" width="1" height="15.2"/>
	
		<rect x="25.5" y="21.4" transform="matrix(0.7071 0.7071 -0.7071 0.7071 30.6769 -8.8457)" fill="#FFEC00" width="1" height="22.5"/>
	
		<rect x="28.2" y="20.4" transform="matrix(0.7071 0.7071 -0.7071 0.7071 33.0927 -10.0843)" fill="#FFEC00" width="1" height="29"/>
	
		<rect x="30.8" y="19.4" transform="matrix(0.7071 0.7071 -0.7071 0.7071 35.5733 -11.1667)" fill="#FFEC00" width="1" height="35.9"/>
	
		<rect x="33.2" y="21.1" transform="matrix(0.7071 0.7071 -0.7071 0.7071 38.0927 -12.1554)" fill="#FFEC00" width="1" height="37.7"/>
	
		<rect x="35.9" y="26.9" transform="matrix(0.7071 0.7071 -0.7071 0.7071 40.5151 -13.3784)" fill="#FFEC00" width="1" height="30.7"/>
	
		<rect x="38" y="33.6" transform="matrix(0.7071 0.7071 -0.7071 0.7071 43.1963 -13.9765)" fill="#FFEC00" width="1" height="23.2"/>
	
		<rect x="40.8" y="38.7" transform="matrix(0.7071 0.7071 -0.7071 0.7071 45.5474 -15.3714)" fill="#FFEC00" width="1" height="17.1"/>
	<rect x="43.2" y="45" transform="matrix(0.7071 0.7071 -0.7071 0.7071 48.0927 -16.2975)" fill="#FFEC00" width="1" height="9.7"/>
	<g>
		
			<rect x="49.8" y="52.6" transform="matrix(0.7071 0.7071 -0.7071 0.7071 55.1101 -18.8015)" fill="#3C3C3B" width="1" height="9"/>
		
			<rect x="52.3" y="51.5" transform="matrix(0.7071 0.7071 -0.7071 0.7071 57.6014 -19.8579)" fill="#3C3C3B" width="1" height="16.2"/>
		
			<rect x="54.9" y="49.8" transform="matrix(0.7071 0.7071 -0.7071 0.7071 60.0671 -20.9768)" fill="#3C3C3B" width="1" height="24.5"/>
		
			<rect x="57.3" y="49.4" transform="matrix(0.7071 0.7071 -0.7071 0.7071 62.6014 -21.9289)" fill="#3C3C3B" width="1" height="30.5"/>
		
			<rect x="59.7" y="48.9" transform="matrix(0.7071 0.7071 -0.7071 0.7071 65.136 -22.8811)" fill="#3C3C3B" width="1" height="36.6"/>
		
			<rect x="62.4" y="48.1" transform="matrix(0.7071 0.7071 -0.7071 0.7071 67.5325 -24.1667)" fill="#3C3C3B" width="1" height="42.7"/>
		
			<rect x="65.3" y="46" transform="matrix(0.7071 0.7071 -0.7071 0.7071 69.903 -25.5147)" fill="#3C3C3B" width="1" height="51.3"/>
		
			<rect x="67.8" y="45.6" transform="matrix(0.7071 0.7071 -0.7071 0.7071 72.3859 -26.5919)" fill="#3C3C3B" width="1" height="57"/>
		
			<rect x="69.7" y="44.7" transform="matrix(0.7071 0.7071 -0.7071 0.7071 75.1272 -27.0441)" fill="#3C3C3B" width="1" height="64.9"/>
		
			<rect x="73" y="45.3" transform="matrix(0.7071 0.7071 -0.7071 0.7071 77.2823 -28.913)" fill="#3C3C3B" width="1" height="67.1"/>
		
			<rect x="75.3" y="51.9" transform="matrix(0.7071 0.7071 -0.7071 0.7071 79.903 -29.6568)" fill="#3C3C3B" width="1" height="59.5"/>
		
			<rect x="77.6" y="57.7" transform="matrix(0.7071 0.7071 -0.7071 0.7071 82.446 -30.5882)" fill="#3C3C3B" width="1" height="53.1"/>
		
			<rect x="79.8" y="64" transform="matrix(0.7071 0.7071 -0.7071 0.7071 85.093 -31.2696)" fill="#3C3C3B" width="1" height="46.2"/>
		
			<rect x="82.3" y="70.4" transform="matrix(0.7071 0.7071 -0.7071 0.7071 87.6018 -32.2843)" fill="#3C3C3B" width="1" height="38.4"/>
		
			<rect x="85.1" y="75.6" transform="matrix(0.7071 0.7071 -0.7071 0.7071 89.9719 -33.6323)" fill="#3C3C3B" width="1" height="32.4"/>
		
			<rect x="87.5" y="82.5" transform="matrix(0.7071 0.7071 -0.7071 0.7071 92.4978 -34.6053)" fill="#3C3C3B" width="1" height="23.7"/>
		
			<rect x="90" y="88.3" transform="matrix(0.7071 0.7071 -0.7071 0.7071 95.0153 -35.5992)" fill="#3C3C3B" width="1" height="17.3"/>
		
			<rect x="92.5" y="94.3" transform="matrix(0.7071 0.7071 -0.7071 0.7071 97.5153 -36.6348)" fill="#3C3C3B" width="1" height="10.2"/>
		
			<rect x="94.9" y="100.4" transform="matrix(0.7071 0.7071 -0.7071 0.7071 100.0325 -37.6286)" fill="#3C3C3B" width="1" height="3"/>
	</g>
	<g>
		<path d="M82.3,80.7l2.8-5.5c0,0-10-7.8-9-11.1c0.5-1.5,1.8-4.7,1.8-4.7c-7.1-2.7-15,0.9-17.7,8c-2,5.3-0.6,11,3.2,14.7
			c0,0-1.8,8.6-1.8,13.9c0,2,0,6.4,0,6.4h21.8c0,0,0-4.8,0-6.7c0-5.9-7.8-17.8-7.8-17.8L82.3,80.7z M72.1,69.1
			c0.7,0,1.2,0.6,1.2,1.2c0,0.7-0.5,1.2-1.2,1.2c-0.7,0-1.2-0.6-1.2-1.2C70.9,69.6,71.4,69.1,72.1,69.1z"/>
		<path fill="#FFEC00" d="M83.9,102.9H61.1v-6.9c0-4.8,1.4-12.2,1.7-13.7c-3.9-4-5.1-9.8-3.1-15c2.1-5.5,7.5-9.2,13.4-9.2
			c1.7,0,3.4,0.3,5,0.9l0.5,0.2l-0.2,0.5c0,0-1.3,3.2-1.8,4.7c-0.7,2.1,5,7.6,8.8,10.6l0.3,0.3l-3.2,6.2l-5.7-2.3
			c2,3.3,7,11.8,7,16.7V102.9z M62.1,101.9h20.8v-6.2c0-5.7-7.6-17.4-7.7-17.5L74.3,77l7.8,3.1l2.4-4.7c-1.9-1.5-9.9-8.1-8.8-11.4
			c0.4-1.2,1.2-3.3,1.6-4.3c-1.4-0.4-2.7-0.7-4.2-0.7c-5.5,0-10.5,3.5-12.4,8.6c-1.9,4.9-0.7,10.5,3.1,14.2l0.2,0.2l-0.1,0.3
			c0,0.1-1.8,8.6-1.8,13.8V101.9z M72.1,72c-1,0-1.7-0.8-1.7-1.7s0.8-1.7,1.7-1.7c1,0,1.7,0.8,1.7,1.7S73.1,72,72.1,72z M72.1,69.6
			c-0.4,0-0.7,0.3-0.7,0.7s0.3,0.7,0.7,0.7c0.4,0,0.7-0.3,0.7-0.7S72.5,69.6,72.1,69.6z"/>
	</g>
	
		<rect x="68.3" y="75.1" transform="matrix(0.7071 0.7071 -0.7071 0.7071 80.125 -23.8177)" fill="#FFEC00" width="1" height="19.4"/>
	
		<rect x="68.9" y="77.9" transform="matrix(0.7071 0.7071 -0.7071 0.7071 83.4275 -22.9157)" fill="#FFEC00" width="1" height="22.6"/>
	<rect x="70" y="80.6" transform="matrix(0.7071 0.7071 -0.7071 0.7071 86.51 -22.545)" fill="#FFEC00" width="1" height="25.2"/>
	<path fill="#FFEC00" d="M97.7,104.2H46.1V52.5h51.7V104.2z M48.1,102.2h47.7V54.5H48.1V102.2z"/>
	
		<rect x="98.8" y="17.7" transform="matrix(0.7071 0.7071 -0.7071 0.7071 43.9383 -64.0394)" fill="#3C3C3B" width="1" height="6.5"/>
	
		<rect x="102.2" y="16.3" transform="matrix(0.7071 0.7071 -0.7071 0.7071 47.4642 -65.4266)" fill="#3C3C3B" width="1" height="16.6"/>
	
		<rect x="105.5" y="14.7" transform="matrix(0.7071 0.7071 -0.7071 0.7071 51.0678 -66.6263)" fill="#3C3C3B" width="1" height="27.2"/>
	
		<rect x="109.4" y="13.4" transform="matrix(0.7071 0.7071 -0.7071 0.7071 54.3952 -68.4926)" fill="#3C3C3B" width="1" height="35.9"/>
	
		<rect x="112.7" y="11.9" transform="matrix(0.7071 0.7071 -0.7071 0.7071 57.9817 -69.734)" fill="#3C3C3B" width="1" height="46.4"/>
	
		<rect x="116.6" y="16.6" transform="matrix(0.7071 0.7071 -0.7071 0.7071 61.3089 -71.6006)" fill="#3C3C3B" width="1" height="43.1"/>
	
		<rect x="119.6" y="26.1" transform="matrix(0.7071 0.7071 -0.7071 0.7071 64.9991 -72.5917)" fill="#3C3C3B" width="1" height="32.2"/>
	
		<rect x="123.4" y="34.3" transform="matrix(0.7071 0.7071 -0.7071 0.7071 68.3781 -74.3333)" fill="#3C3C3B" width="1" height="22.2"/>
	
		<rect x="127.1" y="42.5" transform="matrix(0.7071 0.7071 -0.7071 0.7071 71.8091 -75.9495)" fill="#3C3C3B" width="1" height="12.5"/>
	<path fill="#FFEC00" d="M132.9,54.5H95.8V17.4h37.1V54.5z M97.8,52.5h33.1V19.4H97.8V52.5z"/>
</g>
</svg>
