<?xml version="1.0" encoding="utf-8"?>
<!-- Generator: Adobe Illustrator 18.0.0, SVG Export Plug-In . SVG Version: 6.00 Build 0)  -->
<!DOCTYPE svg PUBLIC "-//W3C//DTD SVG 1.1//EN" "http://www.w3.org/Graphics/SVG/1.1/DTD/svg11.dtd">
<svg version="1.1" id="Layer_1" xmlns="http://www.w3.org/2000/svg" xmlns:xlink="http://www.w3.org/1999/xlink" x="0px" y="0px"
	 viewBox="0 0 150 150" enable-background="new 0 0 150 150" xml:space="preserve">
<g>
	<g>
		<circle fill="#FFEC00" cx="7.7" cy="26.3" r="3.3"/>
		<path fill="#FFEC00" d="M7.7,30.7c-2.4,0-4.3-1.9-4.3-4.3c0-2.4,1.9-4.3,4.3-4.3s4.3,1.9,4.3,4.3C12,28.7,10.1,30.7,7.7,30.7z
			 M7.7,24c-1.3,0-2.3,1-2.3,2.3s1,2.3,2.3,2.3c1.3,0,2.3-1,2.3-2.3S9,24,7.7,24z"/>
	</g>
	<g>
		<defs>
			<rect id="SVGID_1_" x="58" y="26.5" width="52.4" height="48.4"/>
		</defs>
		<clipPath id="SVGID_2_">
			<use xlink:href="#SVGID_1_"  overflow="visible"/>
		</clipPath>
		<g clip-path="url(#SVGID_2_)">
			
				<rect x="62.5" y="16" transform="matrix(0.7071 0.7071 -0.7071 0.7071 38.2972 -36.3537)" fill="#3C3C3B" width="1" height="24.1"/>
			
				<rect x="64.7" y="14.8" transform="matrix(0.7071 0.7071 -0.7071 0.7071 40.9396 -37.0455)" fill="#3C3C3B" width="1" height="32.1"/>
			
				<rect x="66.8" y="13.7" transform="matrix(0.7071 0.7071 -0.7071 0.7071 43.582 -37.7373)" fill="#3C3C3B" width="1" height="40.2"/>
			
				<rect x="70" y="12.9" transform="matrix(0.7071 0.7071 -0.7071 0.7071 45.8102 -39.429)" fill="#3C3C3B" width="1" height="45.4"/>
			
				<rect x="73" y="12.1" transform="matrix(0.7071 0.7071 -0.7071 0.7071 48.0901 -40.9958)" fill="#3C3C3B" width="1" height="50.9"/>
			
				<rect x="75.8" y="11.1" transform="matrix(0.7071 0.7071 -0.7071 0.7071 50.4995 -42.2501)" fill="#3C3C3B" width="1" height="57.4"/>
			
				<rect x="77.9" y="10" transform="matrix(0.7071 0.7071 -0.7071 0.7071 53.1419 -42.9419)" fill="#3C3C3B" width="1" height="65.4"/>
			
				<rect x="80.8" y="9.1" transform="matrix(0.7071 0.7071 -0.7071 0.7071 55.4736 -44.3837)" fill="#3C3C3B" width="1" height="71.4"/>
			
				<rect x="83.6" y="8.2" transform="matrix(0.7071 0.7071 -0.7071 0.7071 57.8442 -45.7317)" fill="#3C3C3B" width="1" height="77.5"/>
			
				<rect x="85.7" y="10.7" transform="matrix(0.7071 0.7071 -0.7071 0.7071 60.5297 -46.3191)" fill="#3C3C3B" width="1" height="78.4"/>
			
				<rect x="86.9" y="17.3" transform="matrix(0.7071 0.7071 -0.7071 0.7071 63.5733 -46.0421)" fill="#3C3C3B" width="1" height="72.9"/>
			
				<rect x="89.7" y="23.8" transform="matrix(0.7071 0.7071 -0.7071 0.7071 65.918 -47.4526)" fill="#3C3C3B" width="1" height="64.1"/>
			
				<rect x="91.1" y="30.4" transform="matrix(0.7071 0.7071 -0.7071 0.7071 68.884 -47.3632)" fill="#3C3C3B" width="1" height="58.1"/>
			
				<rect x="94.2" y="35" transform="matrix(0.7071 0.7071 -0.7071 0.7071 71.1295 -49.0134)" fill="#3C3C3B" width="1" height="52.7"/>
			<rect x="95.1" y="45" transform="matrix(0.7071 0.7071 -0.7071 0.7071 74.3112 -48.403)" fill="#3C3C3B" width="1" height="41"/>
			
				<rect x="98.8" y="48.1" transform="matrix(0.7071 0.7071 -0.7071 0.7071 76.3021 -50.6679)" fill="#3C3C3B" width="1" height="37.4"/>
			
				<rect x="101.1" y="54.5" transform="matrix(0.7071 0.7071 -0.7071 0.7071 78.8711 -51.5366)" fill="#3C3C3B" width="1" height="29.9"/>
			
				<rect x="103.9" y="59.9" transform="matrix(0.7071 0.7071 -0.7071 0.7071 81.2675 -52.8221)" fill="#3C3C3B" width="1" height="23.5"/>
			
				<rect x="105.9" y="67.5" transform="matrix(0.7071 0.7071 -0.7071 0.7071 83.2762 -53.6299)" fill="#3C3C3B" width="1" height="12.5"/>
			
				<rect x="107.1" y="69.1" transform="matrix(0.7071 0.7071 -0.7071 0.7071 84.8969 -53.9593)" fill="#3C3C3B" width="1" height="12.7"/>
		</g>
	</g>
	<g>
		<polygon fill="#FFEC00" points="144.5,77 7,77 7,29.3 9,29.3 9,75 144.5,75 		"/>
		<g>
			<polygon fill="#FFEC00" points="137.9,84.2 136.5,82.7 143.7,76 136.5,69.3 137.9,67.8 146.7,76 			"/>
		</g>
	</g>
	<g>
		<rect x="57.5" y="23.7" fill="#FFEC00" width="1" height="104.2"/>
		<g>
			<polygon fill="#FFEC00" points="53.9,124.6 54.6,123.9 58,127.5 61.4,123.9 62.1,124.6 58,129 			"/>
		</g>
	</g>
	<g>
		<circle fill="#1D1D1B" cx="57.7" cy="25.3" r="3.3"/>
		<path fill="#FFEC00" d="M57.7,29.7c-2.4,0-4.3-1.9-4.3-4.3c0-2.4,1.9-4.3,4.3-4.3s4.3,1.9,4.3,4.3C62,27.7,60.1,29.7,57.7,29.7z
			 M57.7,23c-1.3,0-2.3,1-2.3,2.3s1,2.3,2.3,2.3c1.3,0,2.3-1,2.3-2.3S59,23,57.7,23z"/>
	</g>
	<g>
		<circle fill="#1D1D1B" cx="110.7" cy="25.3" r="3.3"/>
		<path fill="#FFEC00" d="M110.7,29.7c-2.4,0-4.3-1.9-4.3-4.3c0-2.4,1.9-4.3,4.3-4.3s4.3,1.9,4.3,4.3
			C115,27.7,113.1,29.7,110.7,29.7z M110.7,23c-1.3,0-2.3,1-2.3,2.3s1,2.3,2.3,2.3c1.3,0,2.3-1,2.3-2.3S112,23,110.7,23z"/>
	</g>
	<g>
		<circle fill="#1D1D1B" cx="110.7" cy="76.3" r="3.3"/>
		<path fill="#FFEC00" d="M110.7,80.7c-2.4,0-4.3-1.9-4.3-4.3c0-2.4,1.9-4.3,4.3-4.3s4.3,1.9,4.3,4.3
			C115,78.7,113.1,80.7,110.7,80.7z M110.7,74c-1.3,0-2.3,1-2.3,2.3s1,2.3,2.3,2.3c1.3,0,2.3-1,2.3-2.3S112,74,110.7,74z"/>
	</g>
	<path fill="#FFEC00" d="M111.2,73.3h-1v-4h1V73.3z M111.2,63.3h-1v-4h1V63.3z M111.2,53.3h-1v-4h1V53.3z M111.2,43.3h-1v-4h1V43.3z
		 M111.2,33.3h-1v-4h1V33.3z"/>
	<path fill="#FFEC00" d="M104,26.2h-4v-1h4V26.2z M94,26.2h-4v-1h4V26.2z M84,26.2h-4v-1h4V26.2z M74,26.2h-4v-1h4V26.2z M64,26.2
		h-4v-1h4V26.2z"/>
	<g>
		<circle fill="#1D1D1B" cx="7.7" cy="76.3" r="3.3"/>
		<path fill="#FFEC00" d="M7.7,80.7c-2.4,0-4.3-1.9-4.3-4.3c0-2.4,1.9-4.3,4.3-4.3s4.3,1.9,4.3,4.3C12,78.7,10.1,80.7,7.7,80.7z
			 M7.7,74c-1.3,0-2.3,1-2.3,2.3s1,2.3,2.3,2.3c1.3,0,2.3-1,2.3-2.3S9,74,7.7,74z"/>
	</g>
	<g>
		
			<rect x="54.9" y="72.9" transform="matrix(0.7071 -0.7071 0.7071 0.7071 -36.8119 63.3573)" fill="#1D1D1B" width="6.4" height="6.4"/>
		<path fill="#FFEC00" d="M58.1,82.1l-6-6l6-6l6,6L58.1,82.1z M54.9,76.1l3.1,3.1l3.1-3.1L58.1,73L54.9,76.1z"/>
	</g>
</g>
</svg>
