<?xml version="1.0" encoding="utf-8"?>
<!-- Generator: Adobe Illustrator 18.0.0, SVG Export Plug-In . SVG Version: 6.00 Build 0)  -->
<!DOCTYPE svg PUBLIC "-//W3C//DTD SVG 1.1//EN" "http://www.w3.org/Graphics/SVG/1.1/DTD/svg11.dtd">
<svg version="1.1" id="Layer_1" xmlns="http://www.w3.org/2000/svg" xmlns:xlink="http://www.w3.org/1999/xlink" x="0px" y="0px"
	 viewBox="0 0 150 150" enable-background="new 0 0 150 150" xml:space="preserve">
<g>
	<path fill="#FFEC00" d="M137.4,91.4H39.7c-1.1,0-2-0.9-2-2V23.7c0-1.1,0.9-2,2-2h97.7c1.1,0,2,0.9,2,2v65.7
		C139.4,90.5,138.5,91.4,137.4,91.4z M137.4,89.4v1V89.4L137.4,89.4L137.4,89.4z M39.7,23.7v65.7h97.7V23.7H39.7z"/>
	<rect x="63.5" y="79.8" fill="#FFEC00" width="74.3" height="1"/>
	<rect x="41.6" y="25.8" opacity="0.3" fill="#3C3C3B" width="27.7" height="53.8"/>
	<rect x="71.7" y="26.1" opacity="0.3" fill="#3C3C3B" width="19.9" height="21.3"/>
	<rect x="93.5" y="26.1" opacity="0.3" fill="#3C3C3B" width="19.9" height="21.3"/>
	<rect x="115.2" y="26.1" opacity="0.3" fill="#3C3C3B" width="19.9" height="21.3"/>
	<rect x="71.7" y="49.1" opacity="0.3" fill="#3C3C3B" width="19.9" height="21.3"/>
	<rect x="93.5" y="49.1" opacity="0.3" fill="#3C3C3B" width="19.9" height="21.3"/>
	<rect x="115.2" y="49.1" opacity="0.3" fill="#3C3C3B" width="19.9" height="21.3"/>
	<rect x="71.7" y="72.1" opacity="0.3" fill="#3C3C3B" width="19.9" height="7.6"/>
	<rect x="93.5" y="72.1" opacity="0.3" fill="#3C3C3B" width="19.9" height="7.6"/>
	<rect x="115.2" y="72.1" opacity="0.3" fill="#3C3C3B" width="19.9" height="7.6"/>
	<g opacity="0.5">
		<defs>
			<rect id="SVGID_1_" x="41.2" y="26.2" opacity="0.5" width="27.7" height="53.8"/>
		</defs>
		<clipPath id="SVGID_2_">
			<use xlink:href="#SVGID_1_"  overflow="visible"/>
		</clipPath>
		<g clip-path="url(#SVGID_2_)">
			
				<rect x="40" y="23.5" transform="matrix(0.7071 0.7071 -0.7071 0.7071 29.8577 -21.1834)" fill="#3C3C3B" width="1" height="3.8"/>
			
				<rect x="42.1" y="23.8" transform="matrix(0.7071 0.7071 -0.7071 0.7071 32.513 -21.844)" fill="#3C3C3B" width="1" height="9.1"/>
			
				<rect x="44.6" y="23" transform="matrix(0.7071 0.7071 -0.7071 0.7071 35.0173 -22.8692)" fill="#3C3C3B" width="1" height="15.7"/>
			
				<rect x="46.2" y="21.2" transform="matrix(0.7071 0.7071 -0.7071 0.7071 37.9143 -22.9463)" fill="#3C3C3B" width="1" height="26.2"/>
			
				<rect x="49.8" y="19.5" transform="matrix(0.7071 0.7071 -0.7071 0.7071 39.9483 -25.1068)" fill="#3C3C3B" width="1" height="32.4"/>
			
				<rect x="52.5" y="18.3" transform="matrix(0.7071 0.7071 -0.7071 0.7071 42.3577 -26.3611)" fill="#3C3C3B" width="1" height="39.3"/>
			
				<rect x="54.6" y="19.3" transform="matrix(0.7071 0.7071 -0.7071 0.7071 45.013 -27.0216)" fill="#3C3C3B" width="1" height="43"/>
			
				<rect x="54.5" y="24.2" transform="matrix(0.7071 0.7071 -0.7071 0.7071 48.6003 -25.4322)" fill="#3C3C3B" width="1" height="43.6"/>
			
				<rect x="54.5" y="29.2" transform="matrix(0.7071 0.7071 -0.7071 0.7071 52.1488 -23.9365)" fill="#3C3C3B" width="1" height="43.5"/>
			
				<rect x="55" y="33.9" transform="matrix(0.7071 0.7071 -0.7071 0.7071 55.4449 -23.0501)" fill="#3C3C3B" width="1" height="43.1"/>
			
				<rect x="54.5" y="39.4" transform="matrix(0.7071 0.7071 -0.7071 0.7071 59.194 -21.07)" fill="#3C3C3B" width="1" height="43.1"/>
			
				<rect x="54.7" y="44.9" transform="matrix(0.7071 0.7071 -0.7071 0.7071 62.6777 -19.7306)" fill="#3C3C3B" width="1" height="41.7"/>
			
				<rect x="57.5" y="50.3" transform="matrix(0.7071 0.7071 -0.7071 0.7071 65.0548 -21.063)" fill="#3C3C3B" width="1" height="35.4"/>
			
				<rect x="59.5" y="56.2" transform="matrix(0.7071 0.7071 -0.7071 0.7071 67.7554 -21.6141)" fill="#3C3C3B" width="1" height="29.5"/>
			
				<rect x="62.5" y="60.6" transform="matrix(0.7071 0.7071 -0.7071 0.7071 70.0159 -23.2278)" fill="#3C3C3B" width="1" height="24.7"/>
			
				<rect x="63.2" y="68.5" transform="matrix(0.7071 0.7071 -0.7071 0.7071 73.2991 -22.3727)" fill="#3C3C3B" width="1" height="17.7"/>
			
				<rect x="67.2" y="73.5" transform="matrix(0.7071 0.7071 -0.7071 0.7071 75.1519 -24.9707)" fill="#3C3C3B" width="1" height="9.5"/>
		</g>
	</g>
	<rect x="57.7" y="78.9" fill="#FFEC00" width="29.4" height="1"/>
	<g>
		<path d="M60.6,119.4h-47c-1.1,0-2-0.9-2-2V51.7c0-1.1,0.9-2,2-2h47c1.1,0,2,0.9,2,2v65.7C62.6,118.5,61.7,119.4,60.6,119.4z"/>
		<path fill="#FFEC00" d="M60.6,120.4h-47c-1.7,0-3-1.3-3-3V51.7c0-1.7,1.3-3,3-3h47c1.7,0,3,1.3,3,3v65.7
			C63.6,119,62.3,120.4,60.6,120.4z M13.6,50.7c-0.6,0-1,0.4-1,1v65.7c0,0.6,0.4,1,1,1h47c0.6,0,1-0.4,1-1V51.7c0-0.6-0.4-1-1-1
			H13.6z"/>
	</g>
	<rect x="12.4" y="110.7" fill="#FFEC00" width="50.6" height="1"/>
	<path fill="#FFEC00" d="M38.3,117.6H36c-0.8,0-1.5-0.7-1.5-1.5v-1.9c0-0.8,0.7-1.5,1.5-1.5h2.4c0.8,0,1.5,0.7,1.5,1.5v1.9
		C39.8,116.9,39.1,117.6,38.3,117.6z M36,113.7c-0.3,0-0.5,0.2-0.5,0.5v1.9c0,0.3,0.2,0.5,0.5,0.5h2.4c0.3,0,0.5-0.2,0.5-0.5v-1.9
		c0-0.3-0.2-0.5-0.5-0.5H36z"/>
	<rect x="14.6" y="52.6" opacity="0.3" fill="#3C3C3B" width="45.6" height="20"/>
	<rect x="14.6" y="74.6" opacity="0.4" fill="#3C3C3B" width="22.9" height="19.6"/>
	<rect x="39.3" y="74.6" opacity="0.4" fill="#3C3C3B" width="20.7" height="19.6"/>
	<rect x="14.6" y="96.6" opacity="0.4" fill="#3C3C3B" width="22.9" height="14"/>
	<rect x="39.3" y="96.6" opacity="0.4" fill="#3C3C3B" width="20.7" height="13.9"/>
	<g>
		<path d="M86.2,127.3H58.9c-0.6,0-1-0.4-1-1V77c0-0.5,0.4-1,1-1h27.3c0.6,0,1,0.5,1,1v49.2C87.2,126.8,86.8,127.3,86.2,127.3z"/>
		<path fill="#FFEC00" d="M86.2,128.3H58.9c-1.1,0-2-0.9-2-2V77c0-1.1,0.9-2,2-2h27.3c1.1,0,2,0.9,2,2v49.2
			C88.2,127.4,87.3,128.3,86.2,128.3z M86.2,126.3v1V126.3L86.2,126.3L86.2,126.3z M58.9,77v49.2h27.3l0-49.2H58.9z"/>
	</g>
	<rect x="57.8" y="120.8" fill="#FFEC00" width="29.8" height="1"/>
	<rect x="70" y="77.5" fill="#FFEC00" width="5.1" height="1"/>
	<path fill="#FFEC00" d="M72.9,125.8h-0.6c-0.8,0-1.5-0.7-1.5-1.5v-0.6c0-0.8,0.7-1.5,1.5-1.5h0.6c0.8,0,1.5,0.7,1.5,1.5v0.6
		C74.4,125.1,73.7,125.8,72.9,125.8z M72.2,123.2c-0.3,0-0.5,0.2-0.5,0.5v0.6c0,0.3,0.2,0.5,0.5,0.5h0.6c0.3,0,0.5-0.2,0.5-0.5v-0.6
		c0-0.3-0.2-0.5-0.5-0.5H72.2z"/>
	<rect x="60.1" y="81.3" opacity="0.3" fill="#3C3C3B" width="24.8" height="12.2"/>
	<rect x="60.1" y="95.3" opacity="0.4" fill="#3C3C3B" width="24.8" height="12"/>
	<rect x="60.1" y="109.1" opacity="0.4" fill="#3C3C3B" width="24.8" height="11.7"/>
	<g opacity="0.75">
		<defs>
			<rect id="SVGID_3_" x="14.6" y="52.6" opacity="0.75" width="45.6" height="20"/>
		</defs>
		<clipPath id="SVGID_4_">
			<use xlink:href="#SVGID_3_"  overflow="visible"/>
		</clipPath>
		<g clip-path="url(#SVGID_4_)">
			
				<rect x="15.2" y="51.3" transform="matrix(0.7071 0.7071 -0.7071 0.7071 42.677 4.6386)" fill="#3C3C3B" width="1" height="5.1"/>
			
				<rect x="17.1" y="50.6" transform="matrix(0.7071 0.7071 -0.7071 0.7071 44.7375 3.9561)" fill="#3C3C3B" width="1" height="10.8"/>
			
				<rect x="19.8" y="49.6" transform="matrix(0.7071 0.7071 -0.7071 0.7071 47.1684 2.7538)" fill="#3C3C3B" width="1" height="17.4"/>
			
				<rect x="22.2" y="48" transform="matrix(0.7071 0.7071 -0.7071 0.7071 49.6856 1.7598)" fill="#3C3C3B" width="1" height="25.8"/>
			
				<rect x="25.5" y="47.4" transform="matrix(0.7071 0.7071 -0.7071 0.7071 51.8663 -4.646921e-02)" fill="#3C3C3B" width="1" height="30.3"/>
			
				<rect x="30.3" y="47.8" transform="matrix(0.7071 0.7071 -0.7071 0.7071 53.4258 -3.3528)" fill="#3C3C3B" width="1" height="30.1"/>
			
				<rect x="35.2" y="47.8" transform="matrix(0.7071 0.7071 -0.7071 0.7071 54.8988 -6.8675)" fill="#3C3C3B" width="1" height="30.2"/>
			
				<rect x="40.2" y="47.7" transform="matrix(0.7071 0.7071 -0.7071 0.7071 56.3979 -10.3196)" fill="#3C3C3B" width="1" height="30.4"/>
			
				<rect x="45.4" y="47.8" transform="matrix(0.7071 0.7071 -0.7071 0.7071 57.776 -14.0636)" fill="#3C3C3B" width="1" height="29.8"/>
			
				<rect x="50.4" y="47.8" transform="matrix(0.7071 0.7071 -0.7071 0.7071 59.2318 -17.6199)" fill="#3C3C3B" width="1" height="29.8"/>
			
				<rect x="55.2" y="47.7" transform="matrix(0.7071 0.7071 -0.7071 0.7071 60.7826 -20.9472)" fill="#3C3C3B" width="1" height="30.3"/>
			
				<rect x="60.4" y="47.8" transform="matrix(0.7071 0.7071 -0.7071 0.7071 62.1694 -24.6702)" fill="#3C3C3B" width="1" height="29.8"/>
			
				<rect x="65.5" y="47.9" transform="matrix(0.7071 0.7071 -0.7071 0.7071 63.5821 -28.3309)" fill="#3C3C3B" width="1" height="29.5"/>
		</g>
	</g>
</g>
</svg>
