<?xml version="1.0" encoding="utf-8"?>
<!-- Generator: Adobe Illustrator 18.0.0, SVG Export Plug-In . SVG Version: 6.00 Build 0)  -->
<!DOCTYPE svg PUBLIC "-//W3C//DTD SVG 1.1//EN" "http://www.w3.org/Graphics/SVG/1.1/DTD/svg11.dtd">
<svg version="1.1" id="Layer_1" xmlns="http://www.w3.org/2000/svg" xmlns:xlink="http://www.w3.org/1999/xlink" x="0px" y="0px"
	 viewBox="0 0 150 150" enable-background="new 0 0 150 150" xml:space="preserve">
<g>
	<rect x="74.8" y="25.8" fill="#FFEC00" width="1" height="50"/>
	<rect x="25.5" y="75" fill="#FFEC00" width="99.5" height="1"/>
	<circle fill="#FFEC00" cx="103.7" cy="70.3" r="0.7"/>
	<g>
		<path fill="#FFEC00" d="M68.8,75.1h-1V57.2c0-0.3-0.2-0.5-0.4-0.5H34.3c-0.2,0-0.4,0.2-0.4,0.5v17.8h-1V57.2
			c0-0.8,0.6-1.5,1.4-1.5h33.1c0.8,0,1.4,0.7,1.4,1.5V75.1z"/>
		<g>
			<path fill="#1D1D1B" d="M59.3,57.8h-16c-0.6,0-1-0.5-1-1V38.2c0-0.5,0.4-1,1-1h16c0.5,0,1,0.5,1,1v18.5
				C60.3,57.3,59.8,57.8,59.3,57.8z"/>
			<path fill="#FFEC00" d="M59.2,58.2h-16c-0.8,0-1.5-0.7-1.5-1.5V38.2c0-0.8,0.7-1.5,1.5-1.5h16c0.8,0,1.5,0.7,1.5,1.5v18.5
				C60.8,57.6,60.1,58.2,59.2,58.2z M43.2,37.8c-0.3,0-0.5,0.2-0.5,0.5v18.5c0,0.3,0.2,0.5,0.5,0.5h16c0.3,0,0.5-0.2,0.5-0.5V38.2
				c0-0.3-0.2-0.5-0.5-0.5H43.2z"/>
		</g>
		<path fill="none" stroke="#FFEC00" stroke-miterlimit="10" d="M54.4,57.8"/>
		<path fill="none" stroke="#FFEC00" stroke-miterlimit="10" d="M47.4,57.8"/>
		<path fill="none" stroke="#FFEC00" stroke-miterlimit="10" d="M42.4,50.1"/>
		<path fill="none" stroke="#FFEC00" stroke-miterlimit="10" d="M55,37.5"/>
		<rect x="46.6" y="44.9" fill="#FFEC00" width="10" height="1"/>
		<rect x="50.8" y="45.4" fill="#FFEC00" width="1" height="4.1"/>
		<path fill="#FFEC00" d="M44.4,37.6c-0.1,0-0.3,0-0.4-0.1l-3.6-3.6c-0.2-0.2-0.2-0.5,0-0.7s0.5-0.2,0.7,0l3.6,3.6
			c0.2,0.2,0.2,0.5,0,0.7C44.6,37.6,44.5,37.6,44.4,37.6z"/>
		<path fill="#FFEC00" d="M47.4,37.6c-0.1,0-0.3,0-0.4-0.1l-3.6-3.6c-0.2-0.2-0.2-0.5,0-0.7s0.5-0.2,0.7,0l3.6,3.6
			c0.2,0.2,0.2,0.5,0,0.7C47.6,37.6,47.5,37.6,47.4,37.6z"/>
		<path fill="#FFEC00" d="M50.5,37.8c-0.1,0-0.3,0-0.4-0.1l-3.8-3.8c-0.2-0.2-0.2-0.5,0-0.7s0.5-0.2,0.7,0l3.8,3.8
			c0.2,0.2,0.2,0.5,0,0.7C50.8,37.7,50.6,37.8,50.5,37.8z"/>
		<path fill="#FFEC00" d="M53.4,37.7c-0.1,0-0.3,0-0.4-0.1l-3.7-3.7c-0.2-0.2-0.2-0.5,0-0.7s0.5-0.2,0.7,0l3.7,3.7
			c0.2,0.2,0.2,0.5,0,0.7C53.7,37.6,53.5,37.7,53.4,37.7z"/>
		<path fill="#FFEC00" d="M56.1,37.3c-0.1,0-0.3,0-0.4-0.1l-3.3-3.3c-0.2-0.2-0.2-0.5,0-0.7s0.5-0.2,0.7,0l3.3,3.3
			c0.2,0.2,0.2,0.5,0,0.7C56.3,37.3,56.2,37.3,56.1,37.3z"/>
		<path fill="#FFEC00" d="M59.5,37.8c-0.1,0-0.3,0-0.4-0.1l-3.8-3.8c-0.2-0.2-0.2-0.5,0-0.7s0.5-0.2,0.7,0l3.8,3.8
			c0.2,0.2,0.2,0.5,0,0.7C59.8,37.7,59.6,37.8,59.5,37.8z"/>
		<g>
			<path d="M59.3,51H43.1c-0.6,0-1,0.5-1,1v10.2c0,0.5,0.4,1,1,1h16.2c0.5,0,1-0.5,1-1V52C60.3,51.5,59.8,51,59.3,51z"/>
			<path fill="#FFEC00" d="M59.3,63.7H43.1c-0.8,0-1.5-0.7-1.5-1.5V52c0-0.8,0.7-1.5,1.5-1.5h16.2c0.8,0,1.5,0.7,1.5,1.5v10.2
				C60.8,63.1,60.1,63.7,59.3,63.7z M43.1,51.5c-0.3,0-0.5,0.2-0.5,0.5v10.2c0,0.3,0.2,0.5,0.5,0.5h16.2c0.3,0,0.5-0.2,0.5-0.5V52
				c0-0.3-0.2-0.5-0.5-0.5H43.1z"/>
		</g>
		<path fill="#FFEC00" d="M52.9,54.8h-4c-0.3,0-0.5-0.2-0.5-0.5s0.2-0.5,0.5-0.5h4c0.3,0,0.5,0.2,0.5,0.5S53.2,54.8,52.9,54.8z"/>
	</g>
	<rect x="75.8" y="25.6" opacity="0.4" fill="#3C3C3B" width="48.3" height="49.3"/>
	<path fill="#FFEC00" d="M124.2,126.2H25.8c-1.1,0-2-0.9-2-2V25.8c0-1.1,0.9-2,2-2h98.5c1.1,0,2,0.9,2,2v98.5
		C126.2,125.4,125.4,126.2,124.2,126.2z M124.2,124.2v1V124.2L124.2,124.2L124.2,124.2z M25.8,25.8v98.5h98.5l0-98.5H25.8z"/>
	<g>
		<defs>
			<rect id="SVGID_1_" x="75.8" y="25.6" width="48.3" height="49.3"/>
		</defs>
		<clipPath id="SVGID_2_">
			<use xlink:href="#SVGID_1_"  overflow="visible"/>
		</clipPath>
		<g clip-path="url(#SVGID_2_)">
			
				<rect x="79" y="23.2" transform="matrix(0.7071 0.7071 -0.7071 0.7071 44.347 -47.4649)" fill="#3C3C3B" width="1" height="13.2"/>
			
				<rect x="74.9" y="23.2" transform="matrix(0.7071 0.7071 -0.7071 0.7071 43.1674 -44.6172)" fill="#3C3C3B" width="1" height="13.2"/>
			
				<rect x="82.4" y="21" transform="matrix(0.7071 0.7071 -0.7071 0.7071 46.4861 -49.4202)" fill="#3C3C3B" width="1" height="20.7"/>
			
				<rect x="84.5" y="21.1" transform="matrix(0.7071 0.7071 -0.7071 0.7071 49.1725 -50.0537)" fill="#3C3C3B" width="1" height="26.5"/>
			
				<rect x="86.8" y="20.2" transform="matrix(0.7071 0.7071 -0.7071 0.7071 51.7938 -50.8444)" fill="#3C3C3B" width="1" height="33.8"/>
			
				<rect x="89.4" y="19.2" transform="matrix(0.7071 0.7071 -0.7071 0.7071 54.2718 -51.9817)" fill="#3C3C3B" width="1" height="40.7"/>
			
				<rect x="91.9" y="18" transform="matrix(0.7071 0.7071 -0.7071 0.7071 56.7886 -53.024)" fill="#3C3C3B" width="1" height="48.1"/>
			
				<rect x="94.4" y="17.4" transform="matrix(0.7071 0.7071 -0.7071 0.7071 59.3317 -54.004)" fill="#3C3C3B" width="1" height="54.4"/>
			
				<rect x="97.3" y="16" transform="matrix(0.7071 0.7071 -0.7071 0.7071 61.6662 -55.4867)" fill="#3C3C3B" width="1" height="61.3"/>
			
				<rect x="99.5" y="14.7" transform="matrix(0.7071 0.7071 -0.7071 0.7071 64.3396 -56.1519)" fill="#3C3C3B" width="1" height="69.9"/>
			
				<rect x="101.8" y="18.5" transform="matrix(0.7071 0.7071 -0.7071 0.7071 66.9089 -57.0685)" fill="#3C3C3B" width="1" height="67.5"/>
			
				<rect x="104.2" y="25.4" transform="matrix(0.7069 0.7074 -0.7074 0.7069 69.5301 -57.9657)" fill="#3C3C3B" width="1" height="59.1"/>
			
				<rect x="106.5" y="31.6" transform="matrix(0.7071 0.7071 -0.7071 0.7071 72.1124 -58.7447)" fill="#3C3C3B" width="1" height="52.1"/>
			
				<rect x="109.6" y="39.2" transform="matrix(0.7071 0.7071 -0.7071 0.7071 75.0935 -60.0902)" fill="#3C3C3B" width="1" height="42.8"/>
			
				<rect x="112.4" y="46.5" transform="matrix(0.7071 0.7071 -0.7071 0.7071 78.1792 -61.1837)" fill="#3C3C3B" width="1" height="34.5"/>
			
				<rect x="115.3" y="51.7" transform="matrix(0.7071 0.7071 -0.7071 0.7071 80.5398 -62.6038)" fill="#3C3C3B" width="1" height="28.5"/>
			
				<rect x="118.1" y="60.2" transform="matrix(0.7071 0.7071 -0.7071 0.7071 83.6645 -63.6035)" fill="#3C3C3B" width="1" height="18"/>
			
				<rect x="121.1" y="67.5" transform="matrix(0.7071 0.7071 -0.7071 0.7071 86.6848 -64.8547)" fill="#3C3C3B" width="1" height="9.4"/>
		</g>
	</g>
	<g>
		<g>
			<path fill="#1D1D1B" d="M83.4,75.1V57.2c0-0.5,0.4-1,0.9-1h33.1c0.5,0,0.9,0.5,0.9,1v17.8"/>
			<path fill="#FFEC00" d="M118.8,75.1h-1V57.2c0-0.3-0.2-0.5-0.4-0.5H84.3c-0.2,0-0.4,0.2-0.4,0.5v17.8h-1V57.2
				c0-0.8,0.6-1.5,1.4-1.5h33.1c0.8,0,1.4,0.7,1.4,1.5V75.1z"/>
		</g>
		<g>
			<path fill="#1D1D1B" d="M109.3,57.8h-16c-0.6,0-1-0.5-1-1V38.2c0-0.5,0.4-1,1-1h16c0.5,0,1,0.5,1,1v18.5
				C110.3,57.3,109.8,57.8,109.3,57.8z"/>
			<path fill="#FFEC00" d="M109.2,58.2h-16c-0.8,0-1.5-0.7-1.5-1.5V38.2c0-0.8,0.7-1.5,1.5-1.5h16c0.8,0,1.5,0.7,1.5,1.5v18.5
				C110.8,57.6,110.1,58.2,109.2,58.2z M93.2,37.8c-0.3,0-0.5,0.2-0.5,0.5v18.5c0,0.3,0.2,0.5,0.5,0.5h16c0.3,0,0.5-0.2,0.5-0.5
				V38.2c0-0.3-0.2-0.5-0.5-0.5H93.2z"/>
		</g>
		<path fill="none" stroke="#FFEC00" stroke-miterlimit="10" d="M104.4,57.8"/>
		<path fill="none" stroke="#FFEC00" stroke-miterlimit="10" d="M97.4,57.8"/>
		<path fill="none" stroke="#FFEC00" stroke-miterlimit="10" d="M92.4,50.1"/>
		<path fill="none" stroke="#FFEC00" stroke-miterlimit="10" d="M105,37.5"/>
		<polygon fill="#FFEC00" points="96.7,45.9 96.5,44.9 101.2,43.9 106.2,44.8 106,45.7 101.3,44.9 		"/>
		<rect x="100.8" y="44.6" fill="#FFEC00" width="1" height="4.9"/>
		<path fill="#FFEC00" d="M100.9,54.8l-2.2-1.1c-0.2-0.1-0.3-0.4-0.2-0.7c0.1-0.2,0.4-0.3,0.7-0.2l1.8,0.9l1.8-0.9
			c0.2-0.1,0.5,0,0.7,0.2c0.1,0.2,0,0.5-0.2,0.7L100.9,54.8z"/>
		<path fill="#FFEC00" d="M92.3,39.8c-0.1,0-0.3,0-0.4-0.1c-0.2-0.2-0.2-0.5,0-0.7l1.8-1.8c0.2-0.2,0.5-0.2,0.7,0s0.2,0.5,0,0.7
			l-1.8,1.8C92.5,39.7,92.4,39.8,92.3,39.8z"/>
		<path fill="#FFEC00" d="M92.5,42.4c-0.1,0-0.3,0-0.4-0.1c-0.2-0.2-0.2-0.5,0-0.7l3.4-3.4c0.2-0.2,0.5-0.2,0.7,0s0.2,0.5,0,0.7
			l-3.4,3.4C92.7,42.4,92.6,42.4,92.5,42.4z"/>
		<path fill="none" stroke="#FFEC00" stroke-miterlimit="10" d="M109.8,39.8"/>
		<path fill="none" stroke="#FFEC00" stroke-miterlimit="10" d="M95.6,39.8"/>
		<path fill="#FFEC00" d="M110.1,43.9c-0.1,0-0.3,0-0.4-0.1l-8-8c-0.2-0.2-0.2-0.5,0-0.7s0.5-0.2,0.7,0l8,8c0.2,0.2,0.2,0.5,0,0.7
			C110.4,43.8,110.3,43.9,110.1,43.9z"/>
		<path fill="#FFEC00" d="M104,40.7c-0.1,0-0.3,0-0.4-0.1l-4.8-4.8c-0.2-0.2-0.2-0.5,0-0.7s0.5-0.2,0.7,0l4.8,4.8
			c0.2,0.2,0.2,0.5,0,0.7C104.2,40.7,104.1,40.7,104,40.7z"/>
		<path fill="#FFEC00" d="M101,40.7c-0.1,0-0.3,0-0.4-0.1l-4.8-4.8c-0.2-0.2-0.2-0.5,0-0.7s0.5-0.2,0.7,0l4.8,4.8
			c0.2,0.2,0.2,0.5,0,0.7C101.2,40.7,101.1,40.7,101,40.7z"/>
		<path fill="#FFEC00" d="M98,40.7c-0.1,0-0.3,0-0.4-0.1l-4.8-4.8c-0.2-0.2-0.2-0.5,0-0.7s0.5-0.2,0.7,0l4.8,4.8
			c0.2,0.2,0.2,0.5,0,0.7C98.2,40.7,98.1,40.7,98,40.7z"/>
		<path fill="#FFEC00" d="M110,40.8c-0.1,0-0.3,0-0.4-0.1l-4.8-4.8c-0.2-0.2-0.2-0.5,0-0.7s0.5-0.2,0.7,0l4.8,4.8
			c0.2,0.2,0.2,0.5,0,0.7C110.3,40.7,110.1,40.8,110,40.8z"/>
		<rect x="100.4" y="57.8" fill="#FFEC00" width="1" height="17.5"/>
		<circle fill="#FFEC00" cx="103.7" cy="63.3" r="0.7"/>
		<circle fill="#FFEC00" cx="103.7" cy="70.3" r="0.7"/>
	</g>
	<polygon fill="#FFEC00" points="32.7,113.7 32.1,112.8 41.7,106.7 48.6,108.7 60.4,99 72.7,105.7 89.7,96 107.3,102 118.7,91.5 
		119.4,92.3 107.5,103.2 89.8,97.1 72.8,106.8 60.5,100.2 48.9,109.8 41.8,107.8 	"/>
	<path fill="#FFEC00" d="M57.3,110.7l-0.6-0.8l1.6-1.2l0.6,0.8L57.3,110.7z M54.3,109.4l-1.6-1.2l0.6-0.8l1.6,1.2L54.3,109.4z
		 M61.3,107.6l-0.6-0.8l1.6-1.2l0.6,0.8L61.3,107.6z M50.2,106.5l-1.6-1.2l0.6-0.8l1.6,1.2L50.2,106.5z M86,105.1l-0.6-0.4l0.4-0.6
		l0,0l0,0l0.1-0.2l0.1,0.1l1.1-0.7l0.5,0.8L86,105.1z M65.2,104.5l-0.6-0.8l1.6-1.2l0.6,0.8L65.2,104.5z M46.2,103.5l-1.6-1.2
		l0.6-0.8l1.6,1.2L46.2,103.5z M82.8,103.2l-1.7-1l0.5-0.9l1.7,1L82.8,103.2z M90.1,102.5l-0.5-0.8l1.7-1.1l0.5,0.8L90.1,102.5z
		 M69.2,101.5l-0.6-0.8l1.6-1.2l0.6,0.8L69.2,101.5z M31.4,101.2l-0.2-1l1.9-0.5l0.2,1L31.4,101.2z M78.5,100.6l-1.7-1l0.5-0.9
		l1.7,1L78.5,100.6z M42.1,100.6l-1.6-1.2l0.6-0.8l1.6,1.2L42.1,100.6z M36.2,100L36,99l1.9-0.5l0.2,1L36.2,100z M94.4,99.9L93.9,99
		l1.7-1.1l0.5,0.8L94.4,99.9z M73.1,98.4l-0.6-0.8l1.2-0.9l1,0.6l-0.5,0.9l-0.4-0.2L73.1,98.4z M117.6,97.3l-1.8-0.8l0.4-0.9
		l1.8,0.8L117.6,97.3z M98.6,97.2l-0.5-0.8l1.7-1.1l0.5,0.8L98.6,97.2z M113.1,95.3l-1.8-0.8l0.4-0.9l1.8,0.8L113.1,95.3z
		 M102.9,94.6l-0.5-0.8l1.7-1.1l0.5,0.8L102.9,94.6z M108.5,93.2l-1.8-0.8l0.4-0.9l1.8,0.8L108.5,93.2z"/>
</g>
</svg>
