<?xml version="1.0" encoding="utf-8"?>
<!-- Generator: Adobe Illustrator 18.0.0, SVG Export Plug-In . SVG Version: 6.00 Build 0)  -->
<!DOCTYPE svg PUBLIC "-//W3C//DTD SVG 1.1//EN" "http://www.w3.org/Graphics/SVG/1.1/DTD/svg11.dtd">
<svg version="1.1" id="Layer_1" xmlns="http://www.w3.org/2000/svg" xmlns:xlink="http://www.w3.org/1999/xlink" x="0px" y="0px"
	 viewBox="0 0 150 150" enable-background="new 0 0 150 150" xml:space="preserve">
<g>
	<circle opacity="0.4" fill="#3C3C3B" cx="95" cy="92.5" r="26.7"/>
	<circle opacity="0.4" fill="#3C3C3B" cx="55" cy="92.5" r="26.7"/>
	<g>
		<defs>
			<path id="SVGID_1_" d="M69.8,83.7c-9.3-1.8-16.9-8.5-20-17.3c-12.3,2.4-21.5,13.2-21.5,26.2c0,14.7,11.9,26.7,26.7,26.7
				c8,0,15.1-3.5,20-9c-4.1-4.7-6.7-10.9-6.7-17.6C68.3,89.4,68.9,86.4,69.8,83.7z"/>
		</defs>
		<clipPath id="SVGID_2_">
			<use xlink:href="#SVGID_1_"  overflow="visible"/>
		</clipPath>
		<g clip-path="url(#SVGID_2_)">
			
				<rect x="37" y="61.6" transform="matrix(0.7071 0.7071 -0.7071 0.7071 65.2711 -3.9953)" fill="#3C3C3B" width="1" height="30.3"/>
			
				<rect x="39.7" y="60.7" transform="matrix(0.7071 0.7071 -0.7071 0.7071 67.6763 -5.26)" fill="#3C3C3B" width="1" height="36.7"/>
			<rect x="43" y="60" transform="matrix(0.7071 0.7071 -0.7071 0.7071 69.8527 -7.0768)" fill="#3C3C3B" width="1" height="41.6"/>
			
				<rect x="45.7" y="59.1" transform="matrix(0.7071 0.7071 -0.7071 0.7071 72.2621 -8.3311)" fill="#3C3C3B" width="1" height="48"/>
			
				<rect x="49.1" y="58.4" transform="matrix(0.7071 0.7071 -0.7071 0.7071 74.3737 -10.3041)" fill="#3C3C3B" width="1" height="52.4"/>
			
				<rect x="52.5" y="57.7" transform="matrix(0.7071 0.7071 -0.7071 0.7071 76.5242 -12.1834)" fill="#3C3C3B" width="1" height="57.1"/>
			
				<rect x="53.1" y="64.3" transform="matrix(0.7071 0.7071 -0.7071 0.7071 79.7922 -11.3649)" fill="#3C3C3B" width="1" height="52.8"/>
			
				<rect x="55.5" y="66.7" transform="matrix(0.7071 0.7071 -0.7071 0.7071 82.3569 -12.2442)" fill="#3C3C3B" width="1" height="53.2"/>
			
				<rect x="54.4" y="78.1" transform="matrix(0.7071 0.7071 -0.7071 0.7071 86.3327 -9.7171)" fill="#3C3C3B" width="1" height="42.4"/>
			
				<rect x="55.2" y="86.1" transform="matrix(0.7071 0.7071 -0.7071 0.7071 89.5317 -9.0652)" fill="#3C3C3B" width="1" height="34.8"/>
			
				<rect x="56.9" y="92" transform="matrix(0.7071 0.7071 -0.7071 0.7071 92.3553 -9.3195)" fill="#3C3C3B" width="1" height="29.6"/>
			
				<rect x="59.3" y="96.1" transform="matrix(0.7071 0.7071 -0.7071 0.7071 94.92 -10.1987)" fill="#3C3C3B" width="1" height="26.7"/>
			
				<rect x="62.3" y="100.5" transform="matrix(0.7071 0.7071 -0.7071 0.7071 97.187 -11.7968)" fill="#3C3C3B" width="1" height="21.9"/>
			
				<rect x="65.8" y="104.7" transform="matrix(0.7071 0.7071 -0.7071 0.7071 99.2728 -13.8323)" fill="#3C3C3B" width="1" height="16.4"/>
			
				<rect x="70.8" y="104.7" transform="matrix(0.7071 0.7071 -0.7071 0.7071 100.7373 -17.3678)" fill="#3C3C3B" width="1" height="16.4"/>
		</g>
	</g>
	<path fill="#FFEC00" d="M55,119.7c-15,0-27.2-12.2-27.2-27.2S40,65.3,55,65.3s27.2,12.2,27.2,27.2S70,119.7,55,119.7z M55,66.3
		c-14.4,0-26.2,11.7-26.2,26.2s11.7,26.2,26.2,26.2s26.2-11.7,26.2-26.2S69.4,66.3,55,66.3z"/>
	<path fill="#FFEC00" d="M95,119.7c-15,0-27.2-12.2-27.2-27.2S80,65.3,95,65.3s27.2,12.2,27.2,27.2S110,119.7,95,119.7z M95,66.3
		c-14.4,0-26.2,11.7-26.2,26.2s11.7,26.2,26.2,26.2s26.2-11.7,26.2-26.2S109.4,66.3,95,66.3z"/>
	<path fill="#FFEC00" d="M75,84.7c-15,0-27.2-12.2-27.2-27.2c0-15,12.2-27.2,27.2-27.2s27.2,12.2,27.2,27.2
		C102.2,72.5,90,84.7,75,84.7z M75,31.3c-14.4,0-26.2,11.7-26.2,26.2c0,14.4,11.7,26.2,26.2,26.2s26.2-11.7,26.2-26.2
		C101.2,43.1,89.4,31.3,75,31.3z"/>
	<path fill="#FFEC00" d="M55,120.2c-15.3,0-27.7-12.4-27.7-27.7c0-13.2,9.4-24.6,22.3-27.1l0.4,2c-12,2.4-20.6,13-20.6,25.2
		c0,14.2,11.5,25.7,25.7,25.7c7.3,0,14.2-3.1,19.1-8.5l1.5,1.3C70.3,116.8,62.8,120.2,55,120.2z"/>
	<path fill="#FFEC00" d="M95,120.2c-7.9,0-15.4-3.4-20.6-9.2l1.5-1.3c4.9,5.4,11.8,8.5,19.1,8.5c14.2,0,25.7-11.5,25.7-25.7
		c0-12.3-8.7-22.9-20.8-25.2l0.4-2c13,2.5,22.4,13.9,22.4,27.2C122.7,107.8,110.3,120.2,95,120.2z"/>
	<path fill="#FFEC00" d="M48.9,66.7c-1-3-1.6-6.1-1.6-9.2c0-15.3,12.4-27.7,27.7-27.7s27.7,12.4,27.7,27.7c0,3.1-0.5,6.1-1.5,9
		l-1.9-0.7c0.9-2.7,1.4-5.5,1.4-8.4c0-14.2-11.5-25.7-25.7-25.7S49.3,43.3,49.3,57.5c0,2.9,0.5,5.8,1.5,8.6L48.9,66.7z"/>
</g>
</svg>
